<svg width="909" height="781" viewBox="0 0 909 781" fill="none" xmlns="http://www.w3.org/2000/svg">
<path d="M838 216C906.8 177.2 922 22 897.5 -30H-4L-60 774C3.33331 783.167 152.2 790 241 744C352 686.5 352.607 648.797 382.5 583.5C415.461 511.5 465.961 465.5 569.461 465.5C639.005 465.5 682.28 398.365 701.5 345C747.961 216 752 264.5 838 216Z" fill="#E7F6F2"/>
<g clip-path="url(#clip0_0_1)">
<path d="M303.55 440.541H187.217V694.423H303.55V440.541Z" fill="#AEAEAE"/>
<path opacity="0.29" d="M303.55 440.541H187.217V463.239H303.55V440.541Z" fill="#395B64"/>
<path d="M312.756 422.607H178.011V455.113H312.756V422.607Z" fill="#395B64"/>
<path d="M245.244 422.607V694.423" stroke="#BEE4DA" stroke-width="0.4358" stroke-miterlimit="10"/>
<path d="M245.244 422.607C245.244 422.607 287.09 389.26 293.228 406.634C299.644 424.008 245.244 422.607 245.244 422.607Z" stroke="#BEE4DA" stroke-width="0.4358" stroke-miterlimit="10"/>
<path d="M245.244 422.607C245.244 422.607 203.398 389.26 197.26 406.634C191.123 424.008 245.244 422.607 245.244 422.607Z" stroke="#BEE4DA" stroke-width="0.4358" stroke-miterlimit="10"/>
<path d="M245.523 422.887C248.313 422.046 251.381 424.288 252.497 426.81C253.892 429.332 253.613 432.414 253.334 435.497C253.055 437.458 252.776 439.42 253.334 441.382C253.613 442.502 254.171 443.623 255.008 444.744C256.961 447.546 259.472 449.788 262.54 451.47C264.493 452.59 266.725 453.431 268.399 455.112C270.073 456.514 270.91 458.755 271.747 460.717C273.421 465.481 274.257 470.805 273.978 475.849" stroke="#BEE4DA" stroke-width="0.4358" stroke-miterlimit="10" stroke-linecap="round" stroke-linejoin="round"/>
<path d="M239.385 449.788C236.317 448.667 233.806 445.865 232.969 442.502C232.132 439.42 232.69 435.777 234.364 432.975C235.201 431.854 236.038 431.013 237.154 430.453C238.27 429.892 239.664 430.173 240.78 430.733C241.338 431.293 241.617 431.854 241.896 432.414C242.733 434.096 243.291 436.338 241.896 437.739C240.78 438.579 239.106 438.299 238.27 437.458C236.317 436.057 236.038 433.255 236.875 431.013C237.712 428.772 239.385 427.09 241.059 425.409C242.175 424.288 243.291 423.167 244.407 422.046" stroke="#BEE4DA" stroke-width="0.4358" stroke-miterlimit="10" stroke-linecap="round" stroke-linejoin="round"/>
<path d="M196.702 572.806C195.028 571.685 192.796 571.965 191.402 573.366C188.612 576.729 187.775 581.213 188.891 585.416C189.17 586.537 189.728 587.658 190.286 588.779C187.775 586.257 185.543 583.735 183.59 580.932C184.985 581.493 186.38 581.213 187.217 579.812C189.449 576.729 190.565 572.806 190.565 569.163C190.565 565.8 189.728 562.157 187.775 559.075C186.938 557.674 184.427 557.113 182.753 557.954C179.406 559.916 177.174 563.559 176.895 567.482C176.895 568.603 176.895 569.443 176.895 570.564C175.5 567.762 174.384 564.68 173.268 561.877C174.384 562.718 175.779 562.718 176.616 562.157C179.406 560.196 181.637 557.394 182.474 554.031C183.59 550.949 183.59 547.586 182.753 544.503C182.195 542.822 180.522 541.701 178.848 541.981C175.221 542.542 172.71 545.344 171.315 548.427C171.036 549.267 170.757 550.108 170.757 550.668C170.478 547.586 170.199 544.784 169.92 541.701C170.757 542.542 171.594 543.102 172.71 542.822C175.5 541.981 178.29 540.02 179.964 537.778C181.637 534.976 182.474 532.454 182.753 529.091C182.753 527.41 181.637 525.729 179.964 525.729C176.895 525.168 173.547 526.849 171.873 529.371C171.594 529.932 171.036 530.492 170.757 531.053C171.036 528.811 171.594 526.289 172.152 524.047C172.431 524.888 173.268 525.729 174.384 525.729C177.174 526.009 179.964 524.888 181.916 523.207C184.148 521.245 185.543 518.723 186.38 515.921C186.659 514.239 186.101 512.558 184.706 511.998C181.916 510.877 178.848 511.717 176.616 513.399C176.337 513.679 175.779 513.959 175.5 514.52C176.616 511.717 178.011 509.195 179.685 506.393C179.964 506.393 180.522 506.393 180.801 506.393C183.869 505.552 186.659 503.311 188.612 500.789C190.844 497.986 192.518 494.624 193.075 491.261C193.354 489.3 192.518 487.898 190.565 487.898C186.938 488.179 183.311 490.42 181.08 493.223C178.848 496.025 177.174 499.948 177.453 503.871C177.453 504.432 177.732 504.712 177.732 504.992C176.058 507.794 174.663 510.596 173.547 513.399C173.547 512.838 173.547 512.278 173.547 511.717C173.547 508.635 172.71 504.992 170.478 502.75C169.363 501.629 167.41 501.91 166.294 503.871C164.062 507.234 162.667 511.717 162.946 515.641C163.225 518.723 164.62 522.086 167.41 523.767C168.247 524.327 169.084 524.047 169.92 523.487C169.363 526.009 168.805 528.251 168.526 530.773C168.526 530.212 168.247 529.371 167.968 528.811C167.131 525.729 165.178 522.086 162.388 520.124C160.435 519.003 158.761 520.965 158.203 522.646C156.809 527.13 156.53 531.613 157.925 536.097C159.04 539.459 161.551 542.542 165.178 543.383C166.294 543.663 167.131 543.102 167.968 542.262C167.968 545.344 168.247 548.427 168.805 551.509C168.526 550.668 167.968 550.108 167.41 549.267C165.457 546.185 162.388 543.102 159.04 542.262C156.809 541.701 155.414 544.503 155.414 546.185C155.135 551.229 156.251 556.833 159.319 560.476C161.551 563.278 164.899 566.081 169.084 565.52C170.199 565.52 171.315 564.399 171.594 562.998C172.71 566.081 173.826 569.163 175.221 571.965C174.384 571.125 173.826 570.564 172.989 569.724C169.92 567.202 166.015 564.96 162.109 565.24C159.598 565.52 159.04 568.883 159.598 570.844C160.714 576.169 163.783 581.773 168.247 584.856C171.594 587.097 176.058 588.498 179.964 586.537C181.358 585.976 181.637 584.295 181.637 582.614C183.869 585.416 186.101 588.218 188.612 590.74C187.496 590.18 186.38 589.619 185.264 589.339C181.358 587.938 176.337 586.817 172.431 588.779C169.92 589.9 170.757 593.542 171.873 595.784C174.942 601.108 180.243 605.872 186.38 607.273C190.844 608.394 195.865 608.394 199.213 604.471C200.329 603.35 200.05 601.389 199.213 599.427C204.234 602.51 209.256 605.032 214.836 607.273C215.672 607.554 216.509 607.273 216.509 606.713C216.509 606.152 216.23 605.312 215.394 605.032C210.093 603.07 205.071 600.548 200.05 597.466C201.724 597.466 203.398 596.625 203.677 594.944C204.792 590.74 203.956 586.257 202.84 582.334C202.003 578.691 199.771 575.048 196.702 572.806Z" fill="#A5C9CA"/>
<path d="M189.17 571.125C186.101 570.284 183.032 571.965 181.916 574.768C179.685 580.932 181.08 587.938 184.706 593.262C185.822 594.663 186.938 596.064 188.612 597.466C183.869 595.224 179.406 592.702 174.663 589.9C176.895 589.9 178.848 588.498 179.406 586.537C181.079 581.213 180.243 574.487 178.29 569.443C176.337 564.68 173.268 559.916 168.805 556.833C166.573 555.432 162.946 555.712 161.272 557.674C157.646 562.158 156.53 568.603 158.203 574.207C158.761 575.608 159.319 577.009 159.877 578.41C156.53 575.048 153.182 571.685 150.113 567.762C152.066 568.322 154.019 567.762 155.135 566.361C157.925 562.158 159.598 556.833 159.319 551.789C159.04 547.026 157.367 541.981 154.577 538.058C152.903 535.817 149.834 535.256 147.602 536.657C142.86 539.459 140.628 544.784 140.349 549.828C140.349 550.949 140.349 552.35 140.628 553.471C138.396 549.548 136.443 545.344 134.77 541.141C136.164 541.981 138.117 542.262 139.512 541.141C143.139 538.619 146.208 534.135 147.044 529.932C148.16 525.168 147.881 520.965 146.208 516.201C145.371 513.959 142.581 512.278 140.349 512.838C135.606 513.959 131.98 517.882 130.585 522.366C130.306 523.207 130.027 524.327 130.027 525.168C129.19 521.525 128.632 518.163 128.074 514.52C129.19 515.641 130.585 516.201 131.98 515.641C135.885 514.52 139.233 511.437 141.186 507.794C143.418 503.871 143.976 499.668 143.697 495.184C143.418 492.662 141.465 490.701 139.233 490.701C134.77 490.42 130.585 493.223 128.353 496.866C128.074 497.426 127.516 498.267 127.237 498.827C127.516 494.344 128.074 489.58 128.632 485.096C129.19 485.096 129.748 484.816 130.027 484.256C133.654 481.173 136.722 476.69 138.117 472.206C139.791 467.162 140.349 461.558 139.512 456.233C138.954 453.431 136.722 451.75 134.491 452.871C129.469 455.112 125.563 460.437 123.889 465.761C122.216 471.085 121.937 477.53 124.447 482.854C124.726 483.415 125.005 483.975 125.563 484.256C124.726 489.019 124.168 493.783 124.168 498.267C123.889 497.426 123.61 496.585 123.332 496.025C121.658 491.541 118.589 487.058 114.404 484.816C112.451 483.695 109.941 485.376 108.825 488.739C107.151 494.624 107.709 501.91 110.499 507.234C112.73 511.437 116.357 515.641 121.379 516.481C122.774 516.761 124.168 515.921 125.005 514.8C125.563 518.443 126.121 522.366 126.958 526.009C126.4 525.168 125.842 524.327 125.284 523.487C122.216 519.564 117.752 515.36 112.73 514.239C109.383 513.679 107.988 517.322 107.988 519.844C108.267 527.13 110.499 533.295 114.962 538.899C118.031 543.102 123.61 545.905 128.911 545.344C130.585 545.064 131.701 543.943 132.259 541.981C133.933 546.185 136.164 550.388 138.396 554.592C137.559 553.751 136.443 552.91 135.327 552.07C130.864 548.707 125.005 545.905 119.426 546.465C115.799 547.026 115.52 551.509 116.357 554.031C118.589 561.317 123.332 568.603 129.469 572.246C134.212 575.048 140.349 577.009 145.929 574.207C147.602 573.366 148.439 571.405 148.16 569.163C151.229 573.086 154.577 576.729 158.203 580.092C156.809 579.531 155.414 578.691 153.74 578.41C148.16 576.729 141.465 575.328 135.885 578.13C132.259 579.812 133.375 584.856 135.327 587.378C140.07 594.383 147.323 600.548 155.135 602.229C161.272 603.63 168.247 603.35 172.71 598.306C174.105 596.625 174.105 594.103 172.989 591.861C177.732 594.663 182.195 597.466 187.217 599.707C185.264 599.427 183.59 599.427 181.637 599.427C175.221 599.427 167.689 600.828 163.225 605.312C160.156 608.394 163.225 613.158 166.015 615.4C173.268 621.285 183.311 625.208 192.518 624.087C199.492 623.246 206.745 620.444 209.535 613.158C210.372 610.916 209.256 608.114 206.745 606.153C215.672 608.114 224.321 608.675 233.248 608.675C234.643 608.675 235.48 607.834 235.201 606.993C234.922 606.153 233.806 605.312 232.69 605.312C224.042 605.312 215.672 604.471 207.024 602.79C209.535 601.949 211.209 599.707 210.93 597.185C210.093 590.74 207.024 584.575 202.84 579.812C199.771 576.449 194.749 572.526 189.17 571.125Z" fill="#BEE4DA"/>
<path d="M477.352 516.762C479.305 513.959 482.931 513.399 485.721 515.08C491.579 518.443 495.206 524.888 495.485 531.894C495.485 533.855 495.485 535.817 495.206 537.778C497.438 532.734 499.67 527.69 501.344 522.646C499.391 524.328 497.159 524.328 495.206 523.207C490.464 519.844 486.558 514.24 484.884 508.915C483.21 503.871 482.652 497.987 484.047 492.662C484.605 490.14 487.953 487.899 490.743 488.459C496.601 489.58 501.902 494.063 504.133 499.668C504.691 501.069 505.249 502.75 505.528 504.152C506.086 499.108 506.365 494.344 506.365 489.3C505.249 490.981 503.296 491.822 501.344 491.541C496.322 490.14 491.58 486.778 488.511 482.574C485.442 478.651 483.489 473.327 483.489 468.283C483.489 465.481 485.442 462.959 488.232 462.398C493.811 461.558 499.112 464.36 502.739 468.283C503.575 469.124 504.412 470.245 504.97 471.365C504.133 466.882 503.017 462.398 501.623 457.915C501.065 459.596 499.67 460.997 497.996 460.997C493.253 461.277 488.232 459.876 484.605 457.074C480.699 453.992 478.189 450.349 476.236 445.585C475.399 443.063 476.515 440.261 478.747 439.14C483.21 436.898 488.79 437.739 492.695 440.261C493.532 440.821 494.369 441.382 495.206 442.222C493.532 438.86 491.579 435.497 489.627 432.414C489.348 434.096 488.511 435.217 487.395 435.777C483.489 437.458 478.747 437.178 474.841 435.777C470.656 434.096 467.03 431.294 464.798 427.37C463.403 425.129 463.682 422.326 465.356 420.925C468.703 417.843 473.725 417.282 477.91 418.684C478.747 418.964 479.305 419.244 480.141 419.524C476.794 415.881 473.725 412.799 470.098 409.436C469.54 409.716 468.982 409.716 468.425 409.716C463.403 409.716 458.381 408.035 454.197 405.513C449.733 402.711 445.548 398.508 442.759 393.744C441.085 391.222 441.922 388.419 444.712 387.579C450.291 386.178 456.708 387.579 461.729 390.661C466.751 393.744 470.935 398.788 472.33 404.672C472.609 405.233 472.609 406.074 472.33 406.634C475.957 409.716 479.584 413.359 482.652 417.002C482.373 416.162 482.094 415.321 481.815 414.48C480.42 409.716 479.863 404.112 481.536 399.628C482.373 397.387 485.442 397.106 488.511 399.068C493.532 402.711 497.996 408.876 499.112 414.76C499.949 419.524 499.949 425.409 496.601 429.332C495.485 430.453 494.09 430.733 492.695 430.173C494.648 433.535 496.601 436.898 498.554 440.261C498.554 439.14 498.275 438.019 498.275 436.898C497.996 431.574 498.833 425.409 502.181 421.206C504.412 418.684 508.039 420.365 509.713 422.607C514.177 428.491 516.687 434.936 516.687 442.502C516.687 447.827 514.455 453.992 509.713 456.794C508.318 457.635 506.365 457.354 504.97 456.233C506.365 460.717 507.481 465.481 508.318 470.245C508.597 468.843 508.876 467.723 509.155 466.321C510.55 460.997 513.34 454.552 518.082 451.47C521.151 449.508 524.499 452.871 525.615 455.673C528.683 462.959 529.52 471.646 527.009 478.931C525.057 484.536 521.43 489.86 515.013 491.261C513.061 491.822 511.108 490.701 509.992 488.739C509.992 493.783 509.713 499.108 509.155 504.152C509.713 502.75 510.55 501.349 511.387 499.948C514.734 494.904 519.198 489.3 525.336 487.899C529.241 487.058 531.752 491.541 532.031 494.904C532.868 503.591 531.194 513.119 525.893 519.844C521.988 524.888 516.408 529.372 509.155 528.251C506.923 527.97 505.249 526.009 504.691 523.487C503.018 528.811 500.786 534.135 498.275 539.179C499.67 537.778 501.065 536.377 502.46 535.256C507.481 531.053 514.455 527.13 521.151 527.97C525.615 528.531 526.173 534.416 525.615 538.058C523.662 547.306 518.082 557.394 509.992 562.438C503.854 566.361 496.322 568.883 489.348 564.96C487.116 563.559 486.279 560.757 486.837 557.674C480.978 564.96 474.562 571.405 467.309 577.29C466.193 578.13 465.077 578.13 464.519 577.29C463.961 576.449 464.519 575.048 465.356 574.487C472.33 568.883 478.468 562.718 484.047 555.713C481.536 556.833 478.747 555.993 477.352 553.751C473.725 548.146 472.33 541.141 472.33 534.416C472.33 527.97 474.004 521.525 477.352 516.762Z" fill="#A5C9CA"/>
<path d="M487.674 510.036C491.58 507.234 497.159 508.075 500.228 511.998C506.923 520.124 508.318 531.053 505.249 541.141C504.412 543.943 503.297 546.745 501.623 549.267C507.481 543.383 513.061 537.498 518.361 531.053C515.013 532.174 511.387 531.333 509.434 528.251C504.412 520.965 501.902 511.157 502.46 502.47C502.739 494.344 504.97 485.657 509.992 478.931C512.503 475.569 518.082 474.168 521.709 476.409C529.241 481.173 534.263 490.421 534.542 499.388C534.542 501.63 534.542 504.152 533.984 506.674C537.332 499.948 540.679 493.223 543.19 485.937C540.679 487.899 537.332 487.899 535.1 486.217C528.683 481.734 523.941 474.448 521.709 466.602C519.756 459.316 519.477 450.909 521.988 443.623C523.383 439.7 527.567 436.898 531.752 437.739C540.4 439.42 545.98 446.426 549.049 453.711C549.606 455.393 550.164 457.354 550.443 459.316C551.559 452.31 552.396 445.305 552.954 438.299C551.28 440.541 548.491 441.382 546.259 440.821C539.563 438.86 532.868 434.096 529.52 427.931C525.615 421.206 523.941 415.041 523.941 407.475C523.941 403.552 527.288 399.909 530.915 399.348C538.447 398.508 545.701 402.711 550.164 408.596C551.001 409.716 551.838 411.118 552.396 412.519C551.838 406.914 551.001 401.31 549.885 395.705C548.77 397.947 546.817 399.348 544.864 399.348C538.447 399.628 532.031 396.826 527.009 392.343C521.988 387.859 518.64 381.694 516.966 374.969C516.129 371.326 518.082 367.123 521.151 366.002C527.567 363.48 535.1 365.441 540.4 369.645C541.237 370.485 542.074 371.326 542.911 372.167C540.121 365.441 537.332 358.996 533.984 352.551C533.147 352.551 532.31 352.551 531.473 352.271C524.499 349.749 517.803 344.425 513.34 338.54C508.318 332.095 504.691 323.688 503.297 315.562C502.46 311.078 504.97 307.435 509.155 307.996C517.803 308.836 526.173 314.721 531.473 321.446C536.774 328.452 540.121 337.979 539.284 346.947C539.284 348.067 538.726 348.908 538.447 349.749C542.074 356.194 545.143 362.919 547.654 369.925C547.654 368.524 547.654 367.403 547.654 366.002C547.933 358.436 550.443 350.309 555.465 344.705C557.976 341.903 562.439 343.304 565.508 347.787C570.809 355.633 573.877 366.842 572.204 375.809C571.088 383.095 567.74 391.222 560.765 394.865C558.813 395.986 556.581 395.425 554.628 394.024C555.744 399.909 556.86 405.513 557.418 411.398C557.697 409.716 558.255 408.315 558.813 406.634C561.323 399.068 565.787 390.661 572.761 386.738C577.225 384.216 581.41 388.98 582.526 392.903C585.594 403.832 585.594 414.2 581.968 424.848C579.178 432.414 572.482 439.7 564.392 441.382C561.881 441.942 559.371 440.541 557.976 438.299C557.697 445.585 556.581 452.871 555.465 460.157C556.581 458.475 557.418 456.514 558.813 454.832C563.555 447.827 571.088 440.541 579.457 438.579C585.036 437.459 587.826 443.904 587.826 448.387C588.105 460.157 585.036 473.327 577.504 482.014C571.646 488.739 563.834 494.624 553.791 493.223C550.722 492.943 548.77 490.14 547.933 487.058C545.422 494.344 542.074 501.63 538.447 508.355C540.121 506.674 542.074 504.992 544.027 503.591C551.28 498.267 560.766 492.662 570.251 493.783C576.388 494.624 577.225 502.47 575.83 507.234C572.482 519.844 564.95 532.734 553.791 539.46C545.422 544.504 535.1 547.866 525.615 542.542C522.546 540.861 521.43 537.218 521.988 533.295C516.687 540.02 510.829 546.185 504.691 552.07C507.202 550.949 509.992 549.828 512.782 548.707C522.267 545.344 534.263 543.663 543.19 548.147C549.049 551.229 547.096 559.916 544.027 564.68C536.216 577.009 523.104 587.938 508.876 591.021C498.275 593.262 486 592.702 478.189 583.174C475.678 580.092 476.236 575.608 478.747 571.405C466.472 578.691 454.197 584.295 440.806 588.779C438.853 589.339 437.179 588.779 436.9 587.378C436.621 585.977 438.016 584.295 439.69 583.735C452.523 579.531 464.798 573.927 476.515 567.202C472.33 567.202 468.982 564.68 468.146 560.757C465.914 550.949 467.867 540.02 471.214 530.773C474.841 523.487 480.142 515.36 487.674 510.036Z" fill="#BEE4DA"/>
<path d="M675.425 699.187H92.9232C91.5283 699.187 90.4124 698.066 90.4124 696.665C90.4124 695.263 91.5283 694.143 92.9232 694.143H675.703C677.098 694.143 678.214 695.263 678.214 696.665C678.214 698.066 676.819 699.187 675.425 699.187Z" fill="#BEE4DA"/>
<path d="M267.562 716H74.5108C73.1159 716 72 714.879 72 713.478C72 712.077 73.1159 710.956 74.5108 710.956H267.562C268.957 710.956 270.073 712.077 270.073 713.478C270.073 714.879 268.957 716 267.562 716Z" fill="#BEE4DA"/>
<path d="M687.699 716H569.693C568.298 716 567.182 714.879 567.182 713.478C567.182 712.077 568.298 710.956 569.693 710.956H687.699C689.094 710.956 690.21 712.077 690.21 713.478C690.489 714.879 689.094 716 687.699 716Z" fill="#BEE4DA"/>
<path d="M525.894 716H407.887C406.492 716 405.376 714.879 405.376 713.478C405.376 712.077 406.492 710.956 407.887 710.956H525.894C527.288 710.956 528.404 712.077 528.404 713.478C528.404 714.879 527.288 716 525.894 716Z" fill="#BEE4DA"/>
<path d="M356.834 716H318.615C317.22 716 316.104 714.879 316.104 713.478C316.104 712.077 317.22 710.956 318.615 710.956H356.555C357.95 710.956 359.066 712.077 359.066 713.478C359.345 714.879 358.229 716 356.834 716Z" fill="#BEE4DA"/>
<path d="M624.372 663.598L627.72 669.763C630.788 669.203 633.578 668.082 636.368 666.961L633.857 656.032L639.995 665.28C643.9 663.038 647.806 660.236 650.875 656.873L645.295 648.466L653.385 653.791C654.222 652.95 654.78 652.109 655.338 650.988C657.57 647.626 659.523 643.983 660.918 640.06L648.922 637.818L662.313 635.856C663.429 631.373 663.986 627.169 663.708 622.686L655.338 620.444L663.429 619.043C662.871 613.999 661.476 608.955 659.244 604.191C654.222 603.911 648.922 604.191 643.9 605.592L645.295 613.719L640.274 606.713C636.089 608.114 632.183 610.076 628.557 612.598L631.625 625.768L625.209 615.4C622.14 617.922 619.35 621.005 617.119 624.367C616.561 625.208 616.003 626.329 615.166 627.169L622.977 633.054L613.213 630.812C611.26 635.016 609.865 639.499 609.307 644.263L619.908 646.785L608.749 648.186C608.47 651.269 608.749 654.351 609.028 657.433L615.724 658.274L609.307 660.236C610.144 663.879 611.26 667.521 612.934 670.884C616.84 671.164 620.466 670.884 624.093 670.324L624.372 663.598Z" fill="#A5C9CA"/>
<path d="M644.179 605.312L645.574 613.438L640.553 606.433C636.368 607.834 632.462 609.796 628.836 612.318L631.904 625.488L625.488 615.12C622.419 617.642 619.629 620.724 617.398 624.087C616.84 624.928 616.282 626.048 615.445 626.889L623.256 632.774L613.492 630.532C611.539 634.735 610.144 639.219 609.586 643.983L620.187 646.505L609.028 647.906C608.749 650.988 609.028 654.071 609.307 657.153L616.003 657.994L609.586 659.955C610.423 663.598 611.539 667.241 613.213 670.604L658.965 603.911C654.222 603.631 649.201 603.911 644.179 605.312Z" fill="#A5C9CA"/>
<g opacity="0.48">
<path d="M655.617 650.708C657.849 647.346 659.802 643.703 661.197 639.78L649.201 637.538L662.592 635.576C663.708 631.093 664.265 626.889 663.986 622.406L657.57 620.724C656.454 623.527 654.78 626.329 653.106 628.851C642.226 644.543 624.651 651.829 609.865 647.626H609.307C609.028 650.708 609.307 653.791 609.586 656.873L616.282 657.714L609.865 659.675C610.702 663.318 611.818 666.961 613.492 670.324C617.398 670.604 621.024 670.324 624.651 669.763L624.093 663.038L627.441 669.203C630.509 668.642 633.299 667.522 636.089 666.401L633.578 655.472L639.716 664.719C643.621 662.478 647.527 659.675 650.596 656.313L645.016 647.906L653.106 653.23C654.501 652.39 655.059 651.549 655.617 650.708Z" fill="url(#paint0_linear_0_1)"/>
<path d="M657.849 619.884L663.429 618.763C663.15 615.12 662.034 611.477 660.918 608.114C660.639 612.037 659.523 615.96 657.849 619.884Z" fill="url(#paint1_linear_0_1)"/>
</g>
<path d="M616.84 690.22L617.119 697.225C620.187 698.066 623.256 698.346 626.325 698.626L628.836 687.698L630.23 698.626C634.694 698.346 639.437 697.505 643.9 695.824L642.784 686.016L647.806 694.423C648.922 693.863 649.759 693.302 650.875 693.022C654.501 691.06 657.849 688.538 660.639 685.736L650.875 678.45L663.708 682.654C666.497 679.291 669.008 675.368 670.961 671.445L664.544 665.84L672.356 668.082C674.03 663.318 675.146 658.274 675.146 652.95C670.682 650.428 665.939 648.466 660.918 647.346L658.686 655.192L657.291 646.785C652.827 646.225 648.364 646.225 643.9 646.785L640.832 659.956L639.716 647.626C635.81 648.466 632.183 650.148 628.278 652.109C627.162 652.67 626.325 653.23 625.488 653.791L629.951 662.478L622.14 656.313C618.513 659.115 615.166 662.758 612.655 666.401L621.024 673.406L610.423 669.763C609.028 672.566 607.633 675.368 606.796 678.17L612.376 682.093L605.96 680.972C605.123 684.615 604.565 688.258 604.286 692.181C607.633 694.143 610.981 695.544 614.608 696.665L616.84 690.22Z" fill="#BEE4DA"/>
<path d="M660.36 646.785L658.128 654.631L656.733 646.225C652.27 645.664 647.806 645.664 643.342 646.225L640.274 659.395L639.158 647.065C635.252 647.906 631.625 649.587 627.72 651.549C626.604 652.109 625.767 652.67 624.93 653.23L629.394 661.917L621.582 655.752C617.956 658.554 614.608 662.197 612.097 665.84L620.466 672.846L609.865 669.203C608.47 672.005 607.075 674.807 606.239 677.609L611.818 681.533L605.402 680.412C604.565 684.055 604.007 687.698 603.728 691.621L674.309 652.389C670.124 649.867 665.381 647.906 660.36 646.785Z" fill="#BEE4DA"/>
<g opacity="0.48">
<path d="M650.596 692.461C654.222 690.5 657.57 687.978 660.36 685.176L650.596 677.89L663.429 682.093C666.218 678.73 668.729 674.807 670.682 670.884L665.66 666.681C663.429 668.642 660.639 670.324 657.849 672.005C641.389 681.253 622.14 679.851 610.702 669.483L610.144 669.203C608.749 672.005 607.354 674.807 606.518 677.61L612.097 681.533L605.681 680.412C604.844 684.055 604.286 687.698 604.007 691.621C607.354 693.582 610.702 694.983 614.329 696.104L616.84 689.939L617.119 696.945C620.187 697.786 623.256 698.066 626.325 698.346L628.836 687.417L630.23 698.346C634.694 698.066 639.437 697.225 643.9 695.544L642.784 685.736L647.806 694.143C648.643 693.582 649.48 693.022 650.596 692.461Z" fill="url(#paint2_linear_0_1)"/>
<path d="M666.218 665.84L671.798 667.522C672.914 664.159 673.751 660.516 674.309 656.873C672.077 660.236 669.287 663.318 666.218 665.84Z" fill="url(#paint3_linear_0_1)"/>
</g>
<path d="M149.834 663.598L146.487 669.763C143.418 669.203 140.628 668.082 137.838 666.961L140.349 656.032L134.212 665.28C130.306 663.038 126.4 660.236 123.332 656.873L128.911 648.466L120.821 653.791C119.984 652.95 119.426 652.109 118.868 650.988C116.636 647.626 114.683 643.983 113.288 640.06L125.284 637.818L111.894 635.856C110.778 631.373 110.22 627.169 110.499 622.686L118.868 620.444L110.778 619.043C111.336 613.999 112.731 608.955 114.962 604.191C119.984 603.911 125.284 604.191 130.306 605.592L128.911 613.719L133.933 606.713C138.117 608.114 142.023 610.076 145.65 612.598L142.581 625.768L148.997 615.4C152.066 617.922 154.856 621.005 157.088 624.367C157.646 625.208 158.204 626.329 159.04 627.169L151.229 633.054L160.993 630.812C162.946 635.016 164.341 639.499 164.899 644.263L154.298 646.785L165.457 648.186C165.736 651.269 165.457 654.351 165.178 657.433L158.483 658.274L164.899 660.236C164.062 663.879 162.946 667.521 161.272 670.884C157.367 671.164 153.74 670.884 150.113 670.324L149.834 663.598Z" fill="#A5C9CA"/>
<path d="M130.027 605.312L128.632 613.438L133.654 606.433C137.838 607.834 141.744 609.796 145.371 612.318L142.302 625.488L148.718 615.12C151.787 617.642 154.577 620.724 156.809 624.087C157.367 624.928 157.925 626.048 158.761 626.889L150.95 632.774L160.714 630.532C162.667 634.735 164.062 639.219 164.62 643.983L154.019 646.505L165.178 647.906C165.457 650.988 165.178 654.071 164.899 657.153L158.204 657.994L164.62 659.955C163.783 663.598 162.667 667.241 160.993 670.604L115.241 603.911C119.984 603.631 125.005 603.911 130.027 605.312Z" fill="#A5C9CA"/>
<g opacity="0.48">
<path d="M118.589 650.708C116.357 647.346 114.404 643.703 113.009 639.78L125.005 637.538L111.615 635.576C110.499 631.093 109.941 626.889 110.22 622.406L116.636 620.724C117.752 623.527 119.426 626.329 121.1 628.851C131.98 644.543 149.555 651.829 164.341 647.626H164.899C165.178 650.708 164.899 653.791 164.62 656.873L157.925 657.714L164.341 659.675C163.504 663.318 162.388 666.961 160.714 670.324C156.809 670.604 153.182 670.324 149.555 669.763L150.113 663.038L146.766 669.203C143.697 668.642 140.907 667.522 138.117 666.401L140.628 655.472L134.491 664.719C130.585 662.478 126.679 659.675 123.611 656.313L129.19 647.906L121.1 653.23C119.705 652.39 119.147 651.549 118.589 650.708Z" fill="url(#paint4_linear_0_1)"/>
<path d="M116.357 619.884L110.778 618.763C111.057 615.12 112.173 611.477 113.288 608.114C113.567 612.037 114.683 615.96 116.357 619.884Z" fill="url(#paint5_linear_0_1)"/>
</g>
<path d="M157.367 690.22L157.088 697.225C154.019 698.066 150.95 698.346 147.881 698.626L145.371 687.698L143.976 698.626C139.512 698.346 134.77 697.505 130.306 695.824L131.422 686.016L126.4 694.423C125.284 693.863 124.447 693.302 123.332 693.022C119.705 691.06 116.357 688.538 113.567 685.736L123.332 678.45L110.499 682.654C107.709 679.291 105.198 675.368 103.245 671.445L109.662 665.84L101.85 668.082C100.177 663.318 99.0607 658.274 99.0607 652.95C103.524 650.428 108.267 648.466 113.288 647.346L115.52 655.192L116.915 646.785C121.379 646.225 125.842 646.225 130.306 646.785L133.375 659.956L134.491 647.626C138.396 648.466 142.023 650.148 145.929 652.109C147.044 652.67 147.881 653.23 148.718 653.791L144.255 662.478L152.066 656.313C155.693 659.115 159.04 662.758 161.551 666.401L153.182 673.406L163.783 669.763C165.178 672.566 166.573 675.368 167.41 678.17L161.83 682.093L168.247 680.972C169.084 684.615 169.642 688.258 169.92 692.181C166.573 694.143 163.225 695.544 159.598 696.665L157.367 690.22Z" fill="#BEE4DA"/>
<path d="M113.846 646.785L116.078 654.631L117.473 646.225C121.937 645.664 126.4 645.664 130.864 646.225L133.933 659.395L135.049 647.065C138.954 647.906 142.581 649.587 146.487 651.549C147.602 652.109 148.439 652.67 149.276 653.23L144.813 661.917L152.624 655.752C156.251 658.554 159.598 662.197 162.109 665.84L153.74 672.846L164.341 669.203C165.736 672.005 167.131 674.807 167.968 677.609L162.388 681.533L168.805 680.412C169.642 684.055 170.199 687.698 170.478 691.621L99.8976 652.389C104.082 649.867 108.825 647.906 113.846 646.785Z" fill="#BEE4DA"/>
<g opacity="0.48">
<path d="M123.611 692.461C119.984 690.5 116.636 687.978 113.846 685.176L123.611 677.89L110.778 682.093C107.988 678.73 105.477 674.807 103.524 670.884L108.546 666.681C110.778 668.642 113.567 670.324 116.357 672.005C132.817 681.253 152.066 679.851 163.504 669.483L164.062 669.203C165.457 672.005 166.852 674.807 167.689 677.61L162.109 681.533L168.526 680.412C169.363 684.055 169.921 687.698 170.199 691.621C166.852 693.582 163.504 694.983 159.877 696.104L157.367 689.939L157.088 696.945C154.019 697.786 150.95 698.066 147.881 698.346L145.371 687.417L143.976 698.346C139.512 698.066 134.77 697.225 130.306 695.544L131.422 685.736L126.4 694.143C125.563 693.582 124.726 693.022 123.611 692.461Z" fill="url(#paint6_linear_0_1)"/>
<path d="M107.988 665.84L102.408 667.522C101.292 664.159 100.456 660.516 99.8976 656.873C102.129 660.236 104.919 663.318 107.988 665.84Z" fill="url(#paint7_linear_0_1)"/>
</g>
<path d="M453.918 693.022H306.619C289.043 693.022 274.536 678.73 274.536 660.796V301.55C274.536 283.896 288.764 269.325 306.619 269.325H453.918C471.493 269.325 486 283.616 486 301.55V661.076C485.721 678.73 471.493 693.022 453.918 693.022Z" fill="url(#paint8_linear_0_1)"/>
<path d="M454.755 693.862H307.456C289.88 693.862 275.373 679.571 275.373 661.637V302.391C275.373 284.737 289.601 270.165 307.456 270.165H454.755C472.33 270.165 486.837 284.457 486.837 302.391V661.917C486.837 679.571 472.33 693.862 454.755 693.862Z" fill="url(#paint9_linear_0_1)"/>
<path d="M473.446 305.473H287.927V643.422H473.446V305.473Z" fill="url(#paint10_linear_0_1)"/>
<path d="M472.888 307.995H289.601V640.9H472.888V307.995Z" fill="#395B64"/>
<path d="M459.218 334.056H302.992V527.69H459.218V334.056Z" fill="#AEAEAE"/>
<path d="M459.218 552.91H302.992V617.361H459.218V552.91Z" fill="#9ED2C6"/>
<path d="M346.512 603.35H415.698C425.741 603.35 433.832 595.224 433.832 585.136C433.832 575.048 425.741 566.921 415.698 566.921H346.512C336.469 566.921 328.379 575.048 328.379 585.136C328.379 595.224 336.469 603.35 346.512 603.35Z" fill="#AEAEAE"/>
<path d="M364.367 584.576C364.088 584.576 364.088 584.295 364.367 584.576C364.925 584.015 365.761 583.455 366.319 582.894C366.877 582.054 367.156 580.933 367.156 580.092C367.156 578.411 366.319 577.01 364.924 575.889C363.53 574.768 361.298 574.207 358.229 574.207H346.791V596.065H359.066C362.135 596.065 364.367 595.504 365.761 594.383C367.435 593.262 367.993 591.861 367.993 589.9C367.993 588.779 367.714 587.658 366.877 586.537C366.319 585.696 365.482 584.856 364.367 584.576ZM357.392 579.251C358.229 579.251 358.787 579.251 359.066 579.532C359.345 579.812 359.624 580.092 359.624 580.652C359.624 581.213 359.345 581.493 359.066 581.773C358.787 582.054 357.95 582.054 357.392 582.054H354.044V578.691H357.392V579.251ZM360.182 590.18C359.903 590.46 359.066 590.74 358.508 590.74H354.044V587.378H358.508C359.345 587.378 359.903 587.658 360.182 587.938C360.461 588.218 360.74 588.779 360.74 589.339C360.74 589.62 360.461 589.9 360.182 590.18Z" fill="url(#paint11_linear_0_1)"/>
<path d="M384.453 585.696C384.453 587.378 384.174 588.499 383.616 589.339C383.058 589.9 382.221 590.46 381.105 590.46C379.989 590.46 379.431 590.18 378.594 589.339C378.036 588.779 377.757 587.378 377.757 585.696V573.927H370.504V585.977C370.504 589.339 371.341 591.861 373.294 593.543C375.247 595.224 377.757 596.345 381.105 596.345C384.453 596.345 386.964 595.504 388.916 593.543C390.869 591.861 391.706 589.339 391.706 585.977V573.927H384.453V585.696Z" fill="url(#paint12_linear_0_1)"/>
<path d="M415.698 573.927H408.445L403.981 581.493L399.796 573.927H391.985L400.075 587.938V595.784H407.329V587.938L415.698 573.927Z" fill="url(#paint13_linear_0_1)"/>
<path opacity="0.29" d="M275.652 608.955V661.917C275.652 679.571 289.88 694.143 307.734 694.143H455.034C472.609 694.143 487.116 679.851 487.116 661.917V465.2C442.759 541.141 365.761 595.504 275.652 608.955Z" fill="#395B64"/>
<path d="M397.286 680.972H368.83C365.203 680.972 362.414 678.17 362.414 674.527V663.318C362.414 659.675 365.203 656.873 368.83 656.873H397.286C400.912 656.873 403.702 659.675 403.702 663.318V674.527C403.702 678.17 400.633 680.972 397.286 680.972Z" fill="url(#paint14_linear_0_1)"/>
<path d="M395.333 678.45H366.877C363.251 678.45 360.461 675.648 360.461 672.005V660.796C360.461 657.153 363.251 654.351 366.877 654.351H395.333C398.96 654.351 401.749 657.153 401.749 660.796V672.005C401.749 675.368 398.681 678.45 395.333 678.45Z" fill="url(#paint15_linear_0_1)"/>
<path d="M395.612 679.01H367.156C363.53 679.01 360.74 676.208 360.74 672.565V661.356C360.74 657.713 363.53 654.911 367.156 654.911H395.612C399.239 654.911 402.028 657.713 402.028 661.356V672.565C402.028 675.928 399.239 679.01 395.612 679.01Z" fill="url(#paint16_linear_0_1)"/>
<path d="M411.234 290.341H353.766C352.65 290.341 351.813 289.501 351.813 288.38C351.813 287.259 352.65 286.418 353.766 286.418H411.234C412.35 286.418 413.187 287.259 413.187 288.38C413.187 289.501 412.071 290.341 411.234 290.341Z" fill="#395B64"/>
<path d="M428.252 290.341H427.136C426.02 290.341 425.183 289.501 425.183 288.38C425.183 287.259 426.02 286.418 427.136 286.418H428.252C429.368 286.418 430.205 287.259 430.205 288.38C430.484 289.501 429.368 290.341 428.252 290.341Z" fill="#395B64"/>
<path opacity="0.29" d="M486.837 396.266V357.595L484.047 353.672H278.442L274.536 358.996V396.266H275.094C289.601 396.266 305.782 385.337 311.082 373.287C306.061 385.057 313.035 396.266 327.263 396.266H328.658C343.164 396.266 356.276 385.337 357.95 373.287C356.276 385.057 366.319 396.266 380.826 396.266H382.221C396.728 396.266 406.771 385.337 405.097 373.287C406.771 385.057 420.162 396.266 434.389 396.266H435.784C450.291 396.266 456.987 385.337 451.965 373.287C456.429 385.057 472.609 395.986 486.837 396.266Z" fill="#395B64"/>
<path d="M275.094 381.134H273.699C259.193 381.134 255.566 370.205 264.214 358.155L296.018 313.88H330.053L311.082 358.155C305.782 369.925 289.601 381.134 275.094 381.134Z" fill="#9ED2C6"/>
<path d="M328.379 381.134H326.984C312.477 381.134 305.782 370.205 310.803 358.155L330.053 313.88H364.088L357.671 358.155C355.997 369.925 342.885 381.134 328.379 381.134Z" fill="#54BAB9"/>
<path d="M381.942 381.134H380.547C366.04 381.134 355.997 370.205 357.671 358.155L364.088 313.88H398.123L404.539 358.155C406.213 369.925 396.17 381.134 381.942 381.134Z" fill="#9ED2C6"/>
<path d="M435.226 381.134H433.832C419.325 381.134 406.213 370.205 404.539 358.155L398.123 313.88H432.158L451.128 358.155C456.429 369.925 449.454 381.134 435.226 381.134Z" fill="#54BAB9"/>
<path d="M488.511 381.134H487.116C472.609 381.134 456.429 370.205 451.128 358.155L432.437 313.88H466.472L497.996 358.155C506.644 369.925 503.018 381.134 488.511 381.134Z" fill="#9ED2C6"/>
<path d="M324.752 495.184H315.825C313.872 495.184 312.198 493.223 312.477 491.261L321.683 432.975C321.962 431.293 323.357 430.173 325.031 430.173H335.074L324.752 495.184Z" fill="#395B64"/>
<path d="M401.191 495.184H324.752L334.795 430.173H392.264C393.938 430.173 395.612 431.574 395.891 433.255L404.818 490.701C405.376 493.223 403.702 495.184 401.191 495.184Z" fill="#9ED2C6"/>
<path d="M335.074 431.294C335.074 431.013 335.353 430.733 335.632 430.733H392.543C393.659 430.733 394.775 431.294 395.333 432.134C394.775 431.013 393.659 430.453 392.264 430.453H335.074L325.031 495.465H325.31L335.074 431.294Z" fill="#FFB200"/>
<path opacity="0.29" d="M329.216 430.453L320.009 490.421L312.756 492.102C312.756 493.783 314.151 495.184 316.104 495.184H319.173H325.031L335.074 430.173H329.216V430.453Z" fill="#395B64"/>
<path opacity="0.48" d="M404.818 490.981L395.891 433.535C395.612 431.854 393.938 430.453 392.264 430.453H388.637C388.637 431.013 388.637 431.574 388.637 432.134C388.637 462.959 363.809 487.899 333.121 487.899C330.611 487.899 328.379 487.618 325.868 487.338L324.752 495.465H401.191C403.702 495.184 405.376 493.223 404.818 490.981Z" fill="url(#paint17_linear_0_1)"/>
<path opacity="0.48" d="M372.736 495.184H401.191C403.423 495.184 405.097 493.223 404.818 490.981L400.075 461.558C396.17 476.129 385.848 488.459 372.736 495.184Z" fill="url(#paint18_linear_0_1)"/>
<path opacity="0.31" d="M345.117 444.184C347.582 444.184 349.581 442.176 349.581 439.7C349.581 437.224 347.582 435.217 345.117 435.217C342.652 435.217 340.654 437.224 340.654 439.7C340.654 442.176 342.652 444.184 345.117 444.184Z" fill="url(#paint19_linear_0_1)"/>
<path d="M344.838 443.903C347.303 443.903 349.302 441.896 349.302 439.42C349.302 436.944 347.303 434.936 344.838 434.936C342.373 434.936 340.375 436.944 340.375 439.42C340.375 441.896 342.373 443.903 344.838 443.903Z" fill="#9ED2C6"/>
<path opacity="0.48" d="M346.233 435.497C346.512 436.057 346.791 436.898 346.791 437.739C346.791 440.261 344.838 442.222 342.327 442.222C341.77 442.222 341.212 442.222 340.933 441.942C341.77 443.343 343.164 444.184 344.559 444.184C347.07 444.184 349.023 442.222 349.023 439.7C349.302 437.739 347.907 436.057 346.233 435.497Z" fill="url(#paint20_linear_0_1)"/>
<path opacity="0.31" d="M380.826 444.184C383.291 444.184 385.29 442.176 385.29 439.7C385.29 437.224 383.291 435.217 380.826 435.217C378.361 435.217 376.363 437.224 376.363 439.7C376.363 442.176 378.361 444.184 380.826 444.184Z" fill="url(#paint21_linear_0_1)"/>
<path d="M380.547 443.903C383.012 443.903 385.011 441.896 385.011 439.42C385.011 436.944 383.012 434.936 380.547 434.936C378.082 434.936 376.084 436.944 376.084 439.42C376.084 441.896 378.082 443.903 380.547 443.903Z" fill="#9ED2C6"/>
<path opacity="0.48" d="M381.942 435.497C382.221 436.057 382.5 436.898 382.5 437.739C382.5 440.261 380.547 442.222 378.036 442.222C377.478 442.222 376.92 442.222 376.642 441.942C377.478 443.343 378.873 444.184 380.268 444.184C382.779 444.184 384.732 442.222 384.732 439.7C384.732 437.739 383.616 436.057 381.942 435.497Z" fill="url(#paint22_linear_0_1)"/>
<path d="M380.826 441.101C379.989 441.101 379.152 440.261 379.152 439.42V422.607C379.152 413.639 371.899 406.073 362.693 406.073C353.765 406.073 346.233 413.359 346.233 422.607V439.42C346.233 440.261 345.396 441.101 344.559 441.101C343.722 441.101 342.885 440.261 342.885 439.42V422.607C342.885 411.678 351.813 402.991 362.414 402.991C373.294 402.991 381.942 411.958 381.942 422.607V439.42C382.5 440.541 381.663 441.101 380.826 441.101Z" fill="#395B64"/>
<path d="M366.319 506.393H357.392C355.439 506.393 353.766 504.432 354.044 502.47L363.251 444.184C363.53 442.502 364.925 441.382 366.598 441.382H376.642L366.319 506.393Z" fill="#9ED2C6"/>
<path d="M442.759 506.393H366.319L376.363 441.382H433.832C435.505 441.382 437.179 442.783 437.458 444.464L446.385 501.91C446.664 504.432 444.991 506.393 442.759 506.393Z" fill="url(#paint23_linear_0_1)"/>
<path d="M404.26 491.542C412.426 491.542 419.046 484.892 419.046 476.69C419.046 468.487 412.426 461.838 404.26 461.838C396.094 461.838 389.474 468.487 389.474 476.69C389.474 484.892 396.094 491.542 404.26 491.542Z" fill="#222222"/>
<path d="M376.641 442.503C376.641 442.222 376.92 441.942 377.199 441.942H434.111C435.226 441.942 436.342 442.503 436.9 443.343C436.342 442.222 435.226 441.662 433.832 441.662H376.363L366.319 506.674H366.598L376.641 442.503Z" fill="url(#paint24_linear_0_1)"/>
<path opacity="0.29" d="M370.783 441.662L361.298 501.63L354.044 503.311C354.044 504.992 355.439 506.393 357.392 506.393H360.461H366.319L376.363 441.382H370.783V441.662Z" fill="#395B64"/>
<path opacity="0.48" d="M446.385 502.19L437.458 444.744C437.179 443.063 435.505 441.662 433.832 441.662H430.205C430.205 442.222 430.205 442.783 430.205 443.343C430.205 474.168 405.376 499.108 374.689 499.108C372.178 499.108 369.946 498.827 367.435 498.547L366.319 506.674H442.759C444.991 506.393 446.664 504.432 446.385 502.19Z" fill="url(#paint25_linear_0_1)"/>
<path opacity="0.48" d="M414.024 506.393H442.759C444.991 506.393 446.664 504.432 446.385 502.19L441.643 472.767C437.458 487.338 427.415 499.668 414.024 506.393Z" fill="url(#paint26_linear_0_1)"/>
<path opacity="0.31" d="M386.685 455.393C389.15 455.393 391.148 453.385 391.148 450.909C391.148 448.433 389.15 446.426 386.685 446.426C384.219 446.426 382.221 448.433 382.221 450.909C382.221 453.385 384.219 455.393 386.685 455.393Z" fill="url(#paint27_linear_0_1)"/>
<path d="M386.127 455.393C388.592 455.393 390.59 453.385 390.59 450.909C390.59 448.433 388.592 446.426 386.127 446.426C383.661 446.426 381.663 448.433 381.663 450.909C381.663 453.385 383.661 455.393 386.127 455.393Z" fill="#9ED2C6"/>
<path opacity="0.48" d="M387.801 446.706C388.079 447.266 388.358 448.107 388.358 448.948C388.358 451.47 386.406 453.431 383.895 453.431C383.337 453.431 382.779 453.431 382.5 453.151C383.337 454.552 384.732 455.393 386.127 455.393C388.637 455.393 390.59 453.431 390.59 450.909C390.59 448.948 389.474 447.266 387.801 446.706Z" fill="url(#paint28_linear_0_1)"/>
<path opacity="0.31" d="M422.115 455.393C424.58 455.393 426.578 453.385 426.578 450.909C426.578 448.433 424.58 446.426 422.115 446.426C419.649 446.426 417.651 448.433 417.651 450.909C417.651 453.385 419.649 455.393 422.115 455.393Z" fill="url(#paint29_linear_0_1)"/>
<path d="M421.836 455.393C424.301 455.393 426.299 453.385 426.299 450.909C426.299 448.433 424.301 446.426 421.836 446.426C419.37 446.426 417.372 448.433 417.372 450.909C417.372 453.385 419.37 455.393 421.836 455.393Z" fill="#9ED2C6"/>
<path opacity="0.48" d="M423.509 446.706C423.788 447.266 424.067 448.107 424.067 448.948C424.067 451.47 422.115 453.431 419.604 453.431C419.046 453.431 418.488 453.431 418.209 453.151C419.046 454.552 420.441 455.393 421.836 455.393C424.346 455.393 426.299 453.431 426.299 450.909C426.299 448.948 425.183 447.266 423.509 446.706Z" fill="url(#paint30_linear_0_1)"/>
<path d="M422.115 452.31C421.278 452.31 420.441 451.47 420.441 450.629V433.816C420.441 424.848 413.187 417.282 403.981 417.282C395.054 417.282 387.522 424.568 387.522 433.816V450.629C387.522 451.47 386.685 452.31 385.848 452.31C385.011 452.31 384.174 451.47 384.174 450.629V433.816C384.174 422.887 393.101 414.2 403.702 414.2C414.582 414.2 423.23 423.167 423.23 433.816V450.629C423.788 451.75 423.23 452.31 422.115 452.31Z" fill="#222222"/>
<path d="M467.309 518.163H540.121C541.516 518.163 542.911 517.042 542.911 515.361V473.047C542.911 471.646 541.795 470.245 540.121 470.245H467.309C465.914 470.245 464.519 471.366 464.519 473.047V515.361C464.519 516.762 465.635 518.163 467.309 518.163Z" fill="url(#paint31_linear_0_1)"/>
<path d="M542.911 478.651H464.519V490.701H542.911V478.651Z" fill="#395B64"/>
<path d="M510.829 494.344H470.935V499.948H510.829V494.344Z" fill="#395B64"/>
<path d="M487.116 501.91H470.935V504.152H487.116V501.91Z" fill="#395B64"/>
<path d="M532.868 512.278H527.846C526.73 512.278 525.894 511.437 525.894 510.317V505.273C525.894 504.152 526.73 503.311 527.846 503.311H532.868C533.984 503.311 534.821 504.152 534.821 505.273V510.317C534.821 511.437 533.984 512.278 532.868 512.278Z" fill="#9ED2C6"/>
<path d="M630.509 633.615H517.803V693.862H630.509V633.615Z" fill="#395B64"/>
<path opacity="0.29" d="M630.509 633.615H517.803V645.384H630.509V633.615Z" fill="#395B64"/>
<path d="M639.437 624.367H508.876V641.181H639.437V624.367Z" fill="#A5C9CA"/>
<path d="M574.156 624.367V693.862" stroke="#BEE4DA" stroke-width="0.2251" stroke-miterlimit="10"/>
<path d="M574.156 624.087C574.156 624.087 595.637 606.713 598.985 615.961C602.054 624.928 574.156 624.087 574.156 624.087Z" stroke="#BEE4DA" stroke-width="0.2251" stroke-miterlimit="10"/>
<path d="M574.156 624.087C574.156 624.087 552.675 606.713 549.328 615.961C545.98 624.928 574.156 624.087 574.156 624.087Z" stroke="#BEE4DA" stroke-width="0.2251" stroke-miterlimit="10"/>
<path d="M574.156 624.367C575.551 624.087 577.225 624.928 577.783 626.329C578.341 627.73 578.341 629.411 578.341 630.812C578.341 631.933 578.062 632.774 578.341 633.895C578.62 634.455 578.899 635.016 579.178 635.576C580.294 636.977 581.41 638.098 583.084 639.219C584.199 639.779 585.315 640.34 586.152 641.181C586.989 642.021 587.547 642.862 587.826 643.983C588.663 646.505 589.221 649.027 588.942 651.829" stroke="#BEE4DA" stroke-width="0.2251" stroke-miterlimit="10" stroke-linecap="round" stroke-linejoin="round"/>
<path d="M571.088 638.378C569.414 637.818 568.298 636.417 567.74 634.736C567.182 633.054 567.461 631.093 568.577 629.691C568.856 629.131 569.414 628.571 569.972 628.571C570.53 628.29 571.367 628.29 571.924 628.851C572.203 629.131 572.482 629.411 572.482 629.691C573.04 630.532 573.319 631.653 572.482 632.494C571.924 633.054 571.088 632.774 570.53 632.494C569.693 631.653 569.414 630.252 569.972 629.131C570.53 628.01 571.367 627.169 572.203 626.329C572.761 625.768 573.319 625.208 573.877 624.647" stroke="#BEE4DA" stroke-width="0.2251" stroke-miterlimit="10" stroke-linecap="round" stroke-linejoin="round"/>
<path d="M557.976 601.949H466.472V693.862H557.976V601.949Z" fill="#AEAEAE"/>
<path opacity="0.29" d="M557.976 601.949H466.472V619.883H557.976V601.949Z" fill="#395B64"/>
<path d="M565.229 587.938H459.218V613.438H565.229V587.938Z" fill="#A5C9CA"/>
<path d="M512.224 587.938V693.862" stroke="#BEE4DA" stroke-width="0.343" stroke-miterlimit="10"/>
<path d="M512.224 587.938C512.224 587.938 545.143 561.597 550.164 575.328C554.907 589.059 512.224 587.938 512.224 587.938Z" stroke="#BEE4DA" stroke-width="0.343" stroke-miterlimit="10"/>
<path d="M512.224 587.938C512.224 587.938 479.305 561.597 474.283 575.328C469.54 589.059 512.224 587.938 512.224 587.938Z" stroke="#BEE4DA" stroke-width="0.343" stroke-miterlimit="10"/>
<path d="M512.503 588.218C514.734 587.658 516.966 589.339 518.082 591.301C519.198 593.262 518.919 595.784 518.64 598.026C518.361 599.708 518.082 601.109 518.64 602.79C518.919 603.631 519.477 604.471 520.035 605.312C521.709 607.554 523.662 609.235 525.894 610.636C527.567 611.477 529.241 612.318 530.636 613.438C531.752 614.559 532.589 616.241 533.147 617.922C534.542 621.565 535.1 625.768 534.821 629.691" stroke="#BEE4DA" stroke-width="0.343" stroke-miterlimit="10" stroke-linecap="round" stroke-linejoin="round"/>
<path d="M507.481 609.235C504.97 608.114 503.017 606.153 502.46 603.631C501.623 601.109 502.181 598.306 503.575 596.065C504.133 595.224 504.97 594.383 505.807 594.103C506.644 593.823 507.76 593.823 508.597 594.383C509.155 594.664 509.434 595.224 509.434 595.784C509.992 597.186 510.55 598.867 509.434 599.988C508.597 600.828 507.202 600.548 506.365 599.988C504.97 598.867 504.691 596.625 505.249 594.944C505.807 593.262 507.202 591.861 508.597 590.46C509.434 589.62 510.271 588.779 511.108 587.938" stroke="#BEE4DA" stroke-width="0.343" stroke-miterlimit="10" stroke-linecap="round" stroke-linejoin="round"/>
<path d="M619.35 649.027C620.745 649.027 621.582 649.027 621.582 649.027C623.535 649.027 624.93 650.708 624.93 652.39V685.736C624.93 686.577 624.651 687.417 624.093 687.978C623.814 688.258 623.814 688.538 624.093 688.818C624.372 689.099 624.651 689.099 624.93 688.818C625.767 687.978 626.046 686.857 626.046 685.736V652.39C626.046 649.868 624.093 647.626 621.303 647.626C621.303 647.626 620.466 647.626 619.071 647.626C618.792 647.626 618.513 647.906 618.513 648.186C618.792 648.747 619.071 649.027 619.35 649.027Z" fill="#BEE4DA"/>
<path d="M622.977 689.099C622.698 689.379 622.14 689.379 621.582 689.379H588.384C586.431 689.379 585.036 687.698 585.036 686.016C585.036 686.016 585.036 685.736 585.036 684.895C585.036 684.615 584.757 684.335 584.478 684.335C584.199 684.335 583.92 684.615 583.92 684.895C583.92 685.736 583.92 686.016 583.92 686.016C583.92 688.538 585.873 690.78 588.663 690.78H621.582C622.14 690.78 622.977 690.78 623.535 690.5C623.814 690.5 624.093 689.939 623.814 689.659C623.535 689.099 623.256 688.819 622.977 689.099Z" fill="#BEE4DA"/>
<path d="M585.036 681.252C585.036 676.769 585.036 669.483 585.036 663.598C585.036 660.516 585.036 657.994 585.036 656.032C585.036 654.071 585.036 652.95 585.036 652.95C585.036 650.988 586.71 649.587 588.384 649.587C588.384 649.587 591.174 649.587 594.801 649.587C598.706 649.587 603.449 649.587 608.191 649.587C608.47 649.587 608.749 649.307 608.749 649.027C608.749 648.747 608.47 648.466 608.191 648.466C603.449 648.466 598.706 648.466 594.801 648.466C590.895 648.466 588.384 648.466 588.384 648.466C585.873 648.466 583.641 650.428 583.641 653.23C583.641 653.23 583.641 654.351 583.641 656.313C583.641 662.197 583.641 674.807 583.641 681.813C583.641 682.093 583.92 682.373 584.199 682.373C584.757 681.813 585.036 681.533 585.036 681.252Z" fill="#BEE4DA"/>
<path d="M612.376 649.027C614.05 649.027 615.445 649.027 616.84 649.027C617.119 649.027 617.398 648.747 617.398 648.466C617.398 648.186 617.119 647.906 616.84 647.906C615.445 647.906 614.05 647.906 612.376 647.906C612.097 647.906 611.818 648.186 611.818 648.466C611.818 648.747 611.818 649.027 612.376 649.027Z" fill="#BEE4DA"/>
<path d="M601.217 678.45C600.938 678.45 600.38 678.45 600.101 678.17L592.011 670.044C591.453 669.483 591.453 668.642 592.011 668.082C592.569 667.522 593.406 667.522 593.964 668.082L600.938 675.088L615.724 660.236C616.282 659.675 617.119 659.675 617.677 660.236C618.235 660.796 618.235 661.637 617.677 662.197L602.054 678.17C601.775 678.45 601.496 678.45 601.217 678.45Z" fill="#BEE4DA"/>
<path d="M217.904 688.538H143.418C137.28 688.538 131.98 683.494 131.98 677.049V616.521C131.98 610.356 137.001 605.032 143.418 605.032H217.625C223.763 605.032 229.063 610.076 229.063 616.521V677.049C229.063 683.494 224.042 688.538 217.904 688.538Z" fill="#3E224A"/>
<path opacity="0.26" d="M134.212 645.384V675.928C134.212 682.093 138.954 686.857 145.092 686.857H216.23C222.368 686.857 227.111 682.093 227.111 675.928V645.384H134.212Z" fill="#395B64"/>
<path opacity="0.26" d="M216.23 606.993H188.054C192.239 615.12 194.749 624.087 194.749 633.615C194.749 657.434 180.243 677.89 159.598 686.577H216.23C222.368 686.577 227.111 681.813 227.111 675.648V617.642C227.111 612.037 222.368 606.993 216.23 606.993Z" fill="#395B64"/>
<path d="M227.59 593.912L181.311 567.951L142.407 637.925L188.686 663.886L227.59 593.912Z" fill="#A5C9CA"/>
<path d="M214.836 603.911C210.651 601.669 209.256 596.345 211.488 592.141C211.488 591.861 211.767 591.861 211.767 591.581L189.17 578.971C189.17 579.251 188.891 579.251 188.891 579.531C186.659 583.735 181.359 585.136 177.174 582.894L148.16 635.016L188.054 657.433L217.346 605.032C216.509 604.471 215.673 604.191 214.836 603.911Z" fill="#3E224A"/>
<path d="M175.5 645.384L204.234 577.29C204.792 575.889 204.234 574.207 202.84 573.647L163.783 557.114C162.388 556.553 160.714 557.114 160.156 558.515L131.422 626.609C130.864 628.01 131.422 629.691 132.817 630.252L171.873 646.785C173.268 647.345 174.663 646.785 175.5 645.384Z" fill="url(#paint32_linear_0_1)"/>
<path d="M168.335 559.011L137.522 632.331L148.574 637.017L179.386 563.697L168.335 559.011Z" fill="#A5C9CA"/>
<path d="M170.321 595.233L154.698 632.409L160.095 634.698L175.718 597.522L170.321 595.233Z" fill="#A5C9CA"/>
<path d="M168.236 620.312L161.835 635.544L163.891 636.416L170.292 621.184L168.236 620.312Z" fill="#FF9000"/>
<path d="M195.865 581.493L193.912 586.257C193.354 587.378 192.239 587.938 191.123 587.378L186.38 585.416C185.264 584.856 184.706 583.735 185.264 582.614L187.217 577.85C187.775 576.729 188.891 576.169 190.007 576.729L194.749 578.691C195.865 579.251 196.144 580.653 195.865 581.493Z" fill="#9ED2C6"/>
<path d="M212.325 694.423H138.117C131.98 694.423 126.679 689.379 126.679 682.934V622.406C126.679 616.241 131.701 610.917 138.117 610.917H212.325C218.462 610.917 223.763 615.961 223.763 622.406V682.934C223.763 689.379 218.741 694.423 212.325 694.423Z" fill="#395B64"/>
<path opacity="0.26" d="M128.911 650.988V681.533C128.911 687.697 133.654 692.461 139.791 692.461H210.93C217.067 692.461 221.81 687.697 221.81 681.533V650.988H128.911Z" fill="#395B64"/>
<path opacity="0.26" d="M210.93 612.878H182.753C186.938 621.005 189.449 629.972 189.449 639.499C189.449 663.318 174.942 683.775 154.298 692.461H210.93C217.067 692.461 221.81 687.698 221.81 681.533V623.527C221.81 617.922 216.788 612.878 210.93 612.878Z" fill="#395B64"/>
<path d="M232.69 656.593H213.999C212.046 656.593 210.093 654.911 210.093 652.67V642.582C210.093 640.62 211.767 638.658 213.999 638.658H232.69C234.643 638.658 236.596 640.34 236.596 642.582V652.67C236.596 654.911 234.922 656.593 232.69 656.593Z" fill="#395B64"/>
<path opacity="0.26" d="M232.69 649.587H213.999C212.046 649.587 210.093 647.906 210.093 645.664V652.67C210.093 654.631 211.767 656.593 213.999 656.593H232.69C234.643 656.593 236.596 654.911 236.596 652.67V645.664C236.596 647.906 234.922 649.587 232.69 649.587Z" fill="#395B64"/>
<path d="M627.72 624.367H610.144V590.18H627.72C629.672 590.18 631.346 591.861 631.346 593.823V621.004C631.346 622.686 629.672 624.367 627.72 624.367Z" fill="#222222"/>
<path d="M612.934 624.367H580.852C578.62 624.367 576.946 622.686 576.946 620.444V594.103C576.946 591.861 578.62 590.18 580.852 590.18H612.934C615.166 590.18 616.84 591.861 616.84 594.103V620.724C616.84 622.686 614.887 624.367 612.934 624.367Z" fill="#A5C9CA"/>
<path d="M613.492 611.197V620.164C613.492 620.724 613.213 621.005 612.655 621.005H610.423C609.865 621.005 609.586 620.724 609.586 620.164V611.197C609.586 610.636 609.865 610.356 610.423 610.356H612.655C612.934 610.076 613.492 610.636 613.492 611.197Z" fill="#222222"/>
<path d="M613.492 605.032V608.675C613.492 608.955 613.213 609.235 612.934 609.235H610.144C609.865 609.235 609.586 608.955 609.586 608.675V605.032C609.586 604.751 609.865 604.471 610.144 604.471H612.934C613.213 604.471 613.492 604.751 613.492 605.032Z" fill="#222222"/>
<path d="M599.264 590.18H591.174V593.262H599.264V590.18Z" fill="#9ED2C6"/>
<path d="M623.814 590.18H619.35C620.187 590.18 621.024 591.021 621.024 592.141V592.702H625.767V592.141C625.767 591.021 624.93 590.18 623.814 590.18Z" fill="#9ED2C6"/>
<path d="M621.861 590.18H607.354V562.158H621.861C623.535 562.158 624.651 563.559 624.651 564.96V587.098C624.93 588.779 623.535 590.18 621.861 590.18Z" fill="#3E224A"/>
<path d="M609.865 590.18H583.641C581.968 590.18 580.573 588.779 580.573 587.098V565.52C580.573 563.839 581.968 562.438 583.641 562.438H609.865C611.539 562.438 612.934 563.839 612.934 565.52V587.098C612.934 588.779 611.539 590.18 609.865 590.18Z" fill="#395B64"/>
<path d="M610.423 579.251V586.537C610.423 586.817 610.144 587.378 609.586 587.378H607.633C607.354 587.378 606.796 587.098 606.796 586.537V579.251C606.796 578.971 607.075 578.411 607.633 578.411H609.586C609.865 578.691 610.423 578.971 610.423 579.251Z" fill="#395B64"/>
<path d="M610.423 574.487V577.29C610.423 577.57 610.144 577.85 609.865 577.85H607.633C607.354 577.85 607.075 577.57 607.075 577.29V574.487C607.075 574.207 607.354 573.927 607.633 573.927H609.865C610.144 573.927 610.423 574.207 610.423 574.487Z" fill="#395B64"/>
<path d="M598.985 562.158H592.29V564.68H598.985V562.158Z" fill="#9ED2C6"/>
<path d="M618.792 562.158H615.166C616.003 562.158 616.561 562.998 616.561 563.839V564.119H620.466V563.839C620.187 562.998 619.629 562.158 618.792 562.158Z" fill="#9ED2C6"/>
<path d="M517.245 214.121C518.082 214.121 518.919 214.121 519.756 214.121C520.035 214.121 520.314 213.841 520.314 213.56C520.314 213.28 520.035 213 519.756 213C518.919 213 518.082 213 517.245 213C516.966 213 516.687 213.28 516.687 213.56C516.687 213.841 516.966 214.121 517.245 214.121Z" fill="#BEE4DA"/>
<path d="M521.709 214.121C529.799 214.121 541.237 214.121 541.237 214.121C542.911 214.121 544.027 215.522 544.027 216.923C544.027 216.923 544.027 217.764 544.027 219.165C544.027 223.368 544.027 232.616 544.027 238.781C544.027 239.061 544.306 239.341 544.585 239.341C544.864 239.341 545.143 239.061 545.143 238.781C545.143 234.857 545.143 229.253 545.143 224.769C545.143 222.528 545.143 220.566 545.143 219.165C545.143 217.764 545.143 216.923 545.143 216.923C545.143 214.681 543.469 213 541.237 213C541.237 213 529.799 213 521.709 213C521.43 213 521.151 213.28 521.151 213.56C521.151 213.841 521.43 214.121 521.709 214.121Z" fill="#BEE4DA"/>
<path d="M544.027 244.945C544.027 246.347 542.632 247.467 541.237 247.467H513.619C511.945 247.467 510.829 246.066 510.829 244.665V216.923C510.829 215.242 512.224 214.121 513.619 214.121C513.619 214.121 513.619 214.121 513.898 214.121C514.177 214.121 514.456 213.841 514.456 213.56C514.456 213.28 514.177 213 513.898 213C513.619 213 513.619 213 513.619 213C511.387 213 509.713 214.681 509.713 216.923V244.665C509.713 246.907 511.387 248.588 513.619 248.588H541.237C543.19 248.588 544.864 247.187 545.143 245.226C545.143 244.945 544.864 244.665 544.585 244.665C544.306 244.385 544.027 244.665 544.027 244.945Z" fill="#BEE4DA"/>
<path d="M532.589 225.33L523.662 237.66C523.383 237.94 523.104 238.22 522.825 238.22C521.988 238.22 521.43 237.099 521.988 236.539L530.915 224.209C531.194 223.929 531.473 223.648 531.752 223.648C532.589 223.648 533.147 224.489 532.589 225.33Z" fill="#BEE4DA"/>
<path d="M523.383 223.368C522.546 223.368 521.709 223.648 521.151 224.209C520.593 224.769 520.314 225.61 520.314 226.451C520.314 227.291 520.593 228.132 521.151 228.692C521.709 229.253 522.546 229.533 523.383 229.533C524.22 229.533 525.057 229.253 525.615 228.692C526.173 228.132 526.451 227.291 526.451 226.451C526.451 225.61 526.173 224.769 525.615 224.209C525.057 223.648 524.22 223.368 523.383 223.368ZM524.22 227.572C523.941 227.852 523.662 228.132 523.383 228.132C523.104 228.132 522.825 227.852 522.546 227.572C522.267 227.291 522.267 227.011 522.267 226.451C522.267 226.17 522.267 225.61 522.546 225.33C522.825 225.05 523.104 224.769 523.383 224.769C523.662 224.769 523.941 225.05 524.22 225.33C524.499 225.61 524.499 225.89 524.499 226.451C524.499 227.011 524.499 227.291 524.22 227.572Z" fill="#BEE4DA"/>
<path d="M533.705 232.616C533.147 232.055 532.31 231.775 531.473 231.775C530.636 231.775 529.799 232.055 529.241 232.616C528.683 233.176 528.404 234.017 528.404 234.857C528.404 235.698 528.683 236.539 529.241 237.099C529.799 237.66 530.636 237.94 531.473 237.94C532.31 237.94 533.147 237.66 533.705 237.099C534.263 236.539 534.542 235.698 534.542 234.857C534.542 234.017 534.263 233.176 533.705 232.616ZM532.31 235.978C532.031 236.258 531.752 236.539 531.473 236.539C531.194 236.539 530.915 236.258 530.636 235.978C530.357 235.698 530.357 235.418 530.357 234.857C530.357 234.577 530.357 234.017 530.636 233.736C530.915 233.456 531.194 233.176 531.473 233.176C531.752 233.176 532.031 233.456 532.31 233.736C532.589 234.017 532.589 234.297 532.589 234.857C532.589 235.418 532.589 235.698 532.31 235.978Z" fill="#BEE4DA"/>
<path d="M105.477 397.667C106.314 397.667 107.151 397.667 107.988 397.667C108.267 397.667 108.546 397.387 108.546 397.106C108.546 396.826 108.267 396.546 107.988 396.546C107.151 396.546 106.314 396.546 105.477 396.546C105.198 396.546 104.919 396.826 104.919 397.106C104.919 397.387 105.198 397.667 105.477 397.667Z" fill="#BEE4DA"/>
<path d="M109.941 397.667C118.031 397.667 129.469 397.667 129.469 397.667C131.143 397.667 132.259 399.068 132.259 400.469C132.259 400.469 132.259 401.31 132.259 402.711C132.259 406.914 132.259 416.161 132.259 422.326C132.259 422.607 132.538 422.887 132.817 422.887C133.096 422.887 133.375 422.607 133.375 422.326C133.375 418.403 133.375 412.799 133.375 408.315C133.375 406.073 133.375 404.112 133.375 402.711C133.375 401.31 133.375 400.469 133.375 400.469C133.375 398.227 131.701 396.546 129.469 396.546C129.469 396.546 118.031 396.546 109.941 396.546C109.662 396.546 109.383 396.826 109.383 397.106C109.383 397.387 109.662 397.667 109.941 397.667Z" fill="#BEE4DA"/>
<path d="M132.259 428.491C132.259 429.892 130.864 431.013 129.469 431.013H101.85C100.177 431.013 99.0607 429.612 99.0607 428.211V400.469C99.0607 398.788 100.456 397.667 101.85 397.667C101.85 397.667 101.85 397.667 102.129 397.667C102.408 397.667 102.687 397.387 102.687 397.106C102.687 396.826 102.408 396.546 102.129 396.546C101.85 396.546 101.85 396.546 101.85 396.546C99.6186 396.546 97.9448 398.227 97.9448 400.469V428.211C97.9448 430.453 99.6186 432.134 101.85 432.134H129.469C131.422 432.134 133.096 430.733 133.375 428.772C133.375 428.491 133.096 428.211 132.817 428.211C132.538 427.931 132.259 428.211 132.259 428.491Z" fill="#BEE4DA"/>
<path d="M120.821 408.876L111.894 421.205C111.615 421.486 111.336 421.766 111.057 421.766C110.22 421.766 109.662 420.645 110.22 420.085L119.147 407.755C119.426 407.475 119.705 407.194 119.984 407.194C120.821 407.194 121.379 408.035 120.821 408.876Z" fill="#BEE4DA"/>
<path d="M111.615 406.914C110.778 406.914 109.941 407.194 109.383 407.755C108.546 408.315 108.267 409.156 108.267 409.997C108.267 410.837 108.546 411.678 109.104 412.238C109.662 412.799 110.499 413.079 111.336 413.079C112.173 413.079 113.009 412.799 113.567 412.238C114.125 411.678 114.404 410.837 114.404 409.997C114.404 409.156 114.125 408.315 113.567 407.755C113.009 407.194 112.451 406.914 111.615 406.914ZM112.173 411.117C111.894 411.398 111.615 411.678 111.336 411.678C111.057 411.678 110.778 411.398 110.499 411.117C110.22 410.837 110.22 410.557 110.22 409.997C110.22 409.716 110.22 409.156 110.499 408.876C110.778 408.595 111.057 408.315 111.336 408.315C111.615 408.315 111.894 408.595 112.173 408.876C112.451 409.156 112.451 409.436 112.451 409.997C112.73 410.557 112.451 410.837 112.173 411.117Z" fill="#BEE4DA"/>
<path d="M121.937 416.161C121.379 415.601 120.542 415.321 119.705 415.321C118.868 415.321 118.031 415.601 117.473 416.161C116.915 416.722 116.636 417.563 116.636 418.403C116.636 419.244 116.915 420.085 117.473 420.645C118.031 421.205 118.868 421.486 119.705 421.486C120.542 421.486 121.379 421.205 121.937 420.645C122.495 420.085 122.774 419.244 122.774 418.403C122.774 417.563 122.495 416.722 121.937 416.161ZM120.542 419.524C120.263 419.804 119.984 420.085 119.705 420.085C119.426 420.085 119.147 419.804 118.868 419.524C118.589 419.244 118.589 418.964 118.589 418.403C118.589 418.123 118.589 417.563 118.868 417.282C119.147 417.002 119.426 416.722 119.705 416.722C119.984 416.722 120.263 417.002 120.542 417.282C120.821 417.563 120.821 417.843 120.821 418.403C120.821 418.964 120.821 419.244 120.542 419.524Z" fill="#BEE4DA"/>
<path d="M635.531 410.277C635.531 409.156 635.531 407.755 635.531 406.634C635.531 406.354 635.252 406.073 634.973 406.073C634.694 406.073 634.415 406.354 634.415 406.634C634.415 407.755 634.415 408.876 634.415 410.277C634.415 410.557 634.694 410.837 634.973 410.837C635.252 410.837 635.531 410.557 635.531 410.277Z" fill="#BEE4DA"/>
<path d="M635.531 404.953C635.531 402.431 635.531 400.189 635.531 398.788C635.531 397.107 635.531 396.266 635.531 396.266C635.531 394.585 636.926 393.464 638.321 393.464C638.321 393.464 652.827 393.464 660.918 393.464C661.197 393.464 661.476 393.183 661.476 392.903C661.476 392.623 661.197 392.343 660.918 392.343C657.012 392.343 651.433 392.343 646.69 392.343C644.458 392.343 642.226 392.343 640.831 392.343C639.437 392.343 638.321 392.343 638.321 392.343C636.089 392.343 634.415 394.024 634.415 396.266C634.415 396.266 634.415 400.189 634.415 404.953C634.415 405.233 634.694 405.513 634.973 405.513C635.252 405.233 635.531 404.953 635.531 404.953Z" fill="#BEE4DA"/>
<path d="M664.823 393.183C665.66 393.183 665.939 393.183 665.939 393.183C667.613 393.183 668.729 394.584 668.729 395.986V423.728C668.729 425.129 667.613 426.25 666.218 426.53C665.939 426.53 665.66 426.81 665.939 427.09C665.939 427.371 666.218 427.651 666.497 427.371C668.45 427.09 669.845 425.409 669.845 423.447V395.705C669.845 393.464 668.171 391.782 665.939 391.782C665.939 391.782 665.381 391.782 664.823 391.782C664.544 391.782 664.265 392.062 664.265 392.343C664.265 392.903 664.544 393.183 664.823 393.183Z" fill="#BEE4DA"/>
<path d="M664.823 426.53C662.034 426.53 655.617 426.53 649.759 426.53C646.69 426.53 643.9 426.53 641.947 426.53C639.995 426.53 638.6 426.53 638.6 426.53C636.926 426.53 635.81 425.129 635.81 423.728C635.81 423.728 635.81 418.684 635.81 413.079C635.81 412.799 635.531 412.519 635.252 412.519C634.973 412.519 634.694 412.799 634.694 413.079C634.694 418.964 634.694 423.728 634.694 423.728C634.694 425.969 636.368 427.651 638.6 427.651C638.6 427.651 659.523 427.651 664.823 427.651C665.102 427.651 665.381 427.371 665.381 427.09C665.381 426.81 665.102 426.53 664.823 426.53Z" fill="#BEE4DA"/>
<path d="M652.27 404.392L652.549 404.673C652.549 404.673 652.827 404.112 653.664 403.552C654.501 402.991 655.338 402.431 656.733 402.431C658.128 402.431 658.965 402.991 659.802 403.832C660.639 404.672 660.918 405.793 660.918 407.195C660.918 408.596 660.36 410.277 658.965 411.958C657.57 413.64 655.338 415.321 651.712 417.002L652.27 417.563L652.549 417.002C649.201 415.321 646.969 413.64 645.295 411.958C643.9 410.277 643.342 408.596 643.342 407.195C643.342 405.793 643.9 404.672 644.458 403.832C645.295 402.991 646.132 402.431 647.527 402.431C648.922 402.431 650.038 402.991 650.875 403.552C651.154 403.832 651.433 404.112 651.712 404.392L651.991 404.673L652.27 404.953C652.549 404.953 652.549 404.953 652.549 404.673L652.27 404.392L652.549 404.112C652.549 404.112 651.991 403.552 651.154 402.711C650.317 402.15 648.922 401.31 647.248 401.31C645.574 401.31 644.458 401.87 643.342 402.991C642.505 404.112 641.947 405.513 641.947 406.914C641.947 408.596 642.784 410.557 644.179 412.519C645.853 414.48 648.085 416.162 651.712 417.843C651.712 417.843 651.991 417.843 652.27 417.843C655.617 416.162 658.128 414.2 659.802 412.519C661.476 410.557 662.034 408.876 662.034 406.914C662.034 405.513 661.476 404.112 660.639 402.991C659.802 401.87 658.407 401.31 656.733 401.31C655.059 401.31 653.664 401.87 652.827 402.711C651.991 403.271 651.433 403.832 651.433 404.112L652.27 404.392L652.549 404.112L652.27 404.392Z" fill="#BEE4DA"/>
<path d="M214.557 330.694C215.394 330.694 216.23 330.694 217.067 330.694C217.346 330.694 217.625 330.413 217.625 330.133C217.625 329.853 217.346 329.573 217.067 329.573C216.23 329.573 215.394 329.573 214.557 329.573C214.278 329.573 213.999 329.853 213.999 330.133C213.999 330.413 214.278 330.694 214.557 330.694Z" fill="#BEE4DA"/>
<path d="M218.183 330.694C226.274 330.694 237.433 330.694 237.433 330.694C239.106 330.694 240.222 332.095 240.222 333.496C240.222 333.496 240.222 336.018 240.222 339.661C240.222 343.304 240.222 347.787 240.222 351.71C240.222 351.991 240.501 352.271 240.78 352.271C241.059 352.271 241.338 351.991 241.338 351.71C241.338 347.787 241.338 343.023 241.338 339.661C241.338 336.018 241.338 333.496 241.338 333.496C241.338 331.254 239.664 329.573 237.433 329.573C237.433 329.573 226.274 329.573 218.183 329.573C217.904 329.573 217.625 329.853 217.625 330.133C217.904 330.413 217.904 330.694 218.183 330.694Z" fill="#BEE4DA"/>
<path d="M240.501 357.875C240.501 360.117 240.501 361.238 240.501 361.238C240.501 362.919 239.106 364.04 237.712 364.04C237.712 364.04 218.462 364.04 212.046 364.04C211.767 364.32 211.488 364.32 211.488 364.6C211.488 364.881 211.767 365.161 212.046 365.161C218.462 365.161 237.712 365.161 237.712 365.161C239.943 365.161 241.617 363.48 241.617 361.238C241.617 361.238 241.617 359.837 241.617 357.875C241.617 357.595 241.338 357.315 241.059 357.315C240.501 357.315 240.501 357.595 240.501 357.875Z" fill="#BEE4DA"/>
<path d="M210.093 364.32C208.419 364.32 207.303 362.919 207.303 361.518V333.776C207.303 332.095 208.698 330.974 210.093 330.974C210.093 330.974 210.93 330.974 212.046 330.974C212.325 330.974 212.604 330.694 212.604 330.413C212.604 330.133 212.325 329.853 212.046 329.853C210.93 329.853 210.093 329.853 210.093 329.853C207.861 329.853 206.187 331.534 206.187 333.776V361.518C206.187 363.76 207.861 365.441 210.093 365.441C210.372 365.441 210.651 365.161 210.651 364.881C210.372 364.32 210.093 364.32 210.093 364.32Z" fill="#BEE4DA"/>
<path d="M220.973 346.666C221.252 346.386 221.252 346.106 221.252 345.826C221.252 345.546 221.252 345.265 220.973 344.985C220.694 344.705 220.415 344.705 220.136 344.705C219.578 344.705 219.02 344.985 218.741 345.546L217.904 344.985C218.183 344.425 218.462 344.144 219.02 343.864C219.299 343.584 219.857 343.584 220.415 343.584C220.973 343.584 221.531 343.864 221.81 344.144C222.089 344.425 222.368 344.985 222.368 345.546C222.368 345.826 222.368 346.106 222.089 346.666C221.81 346.947 221.531 347.507 220.973 347.787L219.299 349.469H222.647V350.59H217.904V349.469L219.857 347.507C220.415 347.227 220.694 346.947 220.973 346.666Z" fill="#BEE4DA"/>
<path d="M226.553 348.067V346.666H227.389V348.067H228.226V348.908H227.389V350.87H226.553V348.908H223.484V348.067L225.995 343.864H227.389L224.879 348.067H226.553Z" fill="#BEE4DA"/>
<path d="M231.295 343.584C231.853 344.705 232.132 346.106 232.132 347.227C232.132 349.749 231.016 351.991 229.621 353.672C227.947 355.353 225.716 356.194 223.205 356.194C220.694 356.194 218.462 355.073 216.788 353.672C215.394 352.271 214.278 350.029 214.278 347.507C214.278 344.985 215.394 342.743 216.788 341.062C218.462 339.381 220.694 338.54 223.205 338.54C223.484 338.54 224.042 338.54 224.321 338.54C224.6 338.54 224.879 338.26 224.879 337.979C224.879 337.699 224.6 337.419 224.321 337.419C224.042 337.419 223.484 337.419 223.205 337.419C217.625 337.419 213.162 341.903 213.162 347.507C213.162 353.111 217.625 357.595 223.205 357.595C228.784 357.595 233.248 353.111 233.248 347.507C233.248 346.106 232.969 344.705 232.411 343.304C232.411 343.023 232.132 343.023 231.853 343.023C231.295 343.304 231.295 343.584 231.295 343.584Z" fill="#BEE4DA"/>
<path d="M231.295 346.106L231.853 343.864L234.085 344.424L233.527 343.304L231.295 342.463L230.737 344.705L231.295 346.106Z" fill="#BEE4DA"/>
<path d="M556.581 433.535H460.892C454.476 433.535 449.454 428.491 449.454 422.046C449.454 415.601 454.476 410.557 460.892 410.557H556.581C562.997 410.557 568.019 415.601 568.019 422.046C568.019 428.491 562.997 433.535 556.581 433.535Z" fill="#395B64"/>
<path d="M479.305 420.365L475.678 423.727L476.515 428.772L472.33 426.53L467.867 428.772L468.703 424.008L465.356 420.645L470.098 419.804L472.051 415.321L474.283 419.804L479.305 420.365Z" fill="#FF9000"/>
<path d="M497.717 420.365L494.09 423.727L494.927 428.772L490.743 426.53L486.279 428.772L487.116 424.008L483.768 420.645L488.511 419.804L490.464 415.321L492.695 419.804L497.717 420.365Z" fill="#FF9000"/>
<path d="M515.85 420.365L512.503 423.727L513.34 428.772L509.155 426.53L504.691 428.772L505.528 424.008L501.902 420.645L506.923 419.804L508.876 415.321L511.108 419.804L515.85 420.365Z" fill="#FF9000"/>
<path d="M534.263 420.365L530.915 423.727L531.752 428.772L527.567 426.53L523.104 428.772L523.941 424.008L520.314 420.645L525.336 419.804L527.288 415.321L529.52 419.804L534.263 420.365Z" fill="#FF9000"/>
<path d="M552.675 420.365L549.327 423.727L550.164 428.772L545.98 426.53L541.516 428.772L542.353 424.008L538.726 420.645L543.748 419.804L545.701 415.321L547.933 419.804L552.675 420.365Z" fill="#FF9000"/>
<path d="M342.885 694.143H278.442C275.652 694.143 273.42 692.181 272.863 689.659L263.377 641.461H357.95L348.465 689.379C347.907 692.181 345.396 694.143 342.885 694.143Z" fill="url(#paint33_linear_0_1)"/>
<path opacity="0.29" d="M264.493 647.345L355.16 654.631L357.95 641.18H263.377L264.493 647.345Z" fill="#395B64"/>
<path d="M286.532 687.978C285.137 687.978 284.022 686.857 283.743 685.736L279.558 657.713C279.279 656.032 280.674 654.631 282.348 654.631H283.185C284.58 654.631 285.695 655.752 285.974 657.153L289.322 685.175C289.601 686.576 288.206 687.978 286.532 687.978ZM297.412 654.351H296.575C294.902 654.351 293.786 655.752 293.786 657.433L296.018 685.456C296.018 686.857 297.412 687.978 298.807 687.978C300.481 687.978 301.597 686.576 301.597 685.175L300.202 657.153C300.202 655.472 299.086 654.351 297.412 654.351ZM311.64 654.351H310.803C309.129 654.351 308.013 655.752 308.013 657.153L308.571 685.175C308.571 686.576 309.687 687.978 311.361 687.978C312.756 687.978 314.151 686.857 314.151 685.175L314.709 657.153C314.43 655.752 313.314 654.351 311.64 654.351ZM326.147 654.351H325.31C323.915 654.351 322.52 655.472 322.52 656.873L321.125 684.895C321.125 686.576 322.241 687.697 323.915 687.697C325.31 687.697 326.426 686.576 326.705 685.175L328.937 657.153C328.937 655.752 327.542 654.351 326.147 654.351ZM340.375 654.351H339.538C338.143 654.351 337.027 655.472 336.748 656.873L333.4 684.895C333.121 686.576 334.516 687.978 336.19 687.978C337.585 687.978 338.701 686.857 338.98 685.736L343.164 657.713C343.164 656.032 342.049 654.351 340.375 654.351Z" fill="#9ED2C6"/>
<path d="M297.412 685.456L295.181 657.433C295.181 655.752 296.296 654.631 297.691 654.351H297.412H296.575C294.902 654.351 293.786 655.752 293.786 657.433L296.018 685.456C296.018 686.857 297.412 687.978 298.807 687.978C299.086 687.978 299.365 687.978 299.365 687.978C298.528 687.697 297.691 686.576 297.412 685.456Z" fill="#AEAEAE"/>
<path d="M285.137 685.736L280.953 657.714C280.674 656.032 281.79 654.631 283.464 654.631H283.185H282.348C280.674 654.631 279.279 656.032 279.558 657.714L283.743 685.736C284.022 687.137 285.137 687.978 286.532 687.978C286.811 687.978 287.09 687.978 287.369 687.978C286.253 687.697 285.416 686.857 285.137 685.736Z" fill="#AEAEAE"/>
<path d="M322.241 685.175L323.636 657.153C323.636 655.752 324.752 654.631 326.147 654.631H325.868H325.031C323.636 654.631 322.241 655.752 322.241 657.153L320.846 685.175C320.846 686.857 321.962 687.978 323.636 687.978C323.915 687.978 324.194 687.978 324.194 687.978C323.078 687.697 322.241 686.296 322.241 685.175Z" fill="#AEAEAE"/>
<path d="M334.516 684.895L337.864 656.873C338.143 655.472 338.98 654.631 340.375 654.351H340.096H339.259C337.864 654.351 336.748 655.472 336.469 656.873L333.121 684.895C332.842 686.576 334.237 687.978 335.911 687.978C336.19 687.978 336.19 687.978 336.469 687.978C335.353 687.417 334.516 686.296 334.516 684.895Z" fill="#AEAEAE"/>
<path d="M309.966 685.175L309.408 657.153C309.408 655.752 310.524 654.351 311.919 654.351H311.64H310.803C309.129 654.351 308.013 655.752 308.013 657.153L308.571 685.175C308.571 686.576 309.687 687.978 311.361 687.978C311.64 687.978 311.919 687.978 311.919 687.978C310.803 687.697 309.966 686.576 309.966 685.175Z" fill="#9ED2C6"/>
<path d="M359.903 645.104H261.146C259.193 645.104 257.798 643.422 257.798 641.741V635.016C257.798 633.054 259.472 631.653 261.146 631.653H359.903C361.856 631.653 363.251 633.334 363.251 635.016V641.741C363.53 643.702 361.856 645.104 359.903 645.104Z" fill="url(#paint34_linear_0_1)"/>
<path d="M254.171 639.499C251.939 636.977 252.218 633.054 254.729 630.812L290.717 598.867C293.228 596.625 297.133 596.905 299.365 599.427C301.597 601.949 301.318 605.872 298.807 608.114L262.819 640.06C260.309 642.301 256.403 642.301 254.171 639.499Z" fill="url(#paint35_linear_0_1)"/>
<path d="M367.156 639.499C369.388 636.977 369.109 633.054 366.598 630.812L330.61 598.867C328.1 596.625 324.194 596.905 321.962 599.427C319.73 601.949 320.009 605.872 322.52 608.114L358.508 640.06C361.019 642.301 364.925 642.301 367.156 639.499Z" fill="url(#paint36_linear_0_1)"/>
<path opacity="0.13" d="M261.146 638.378C259.193 638.378 257.798 640.06 257.798 641.741C257.798 643.702 259.472 645.104 261.146 645.104H359.903C361.856 645.104 363.251 643.422 363.251 641.741C363.251 639.779 361.577 638.378 359.903 638.378H261.146Z" fill="url(#paint37_linear_0_1)"/>
<path d="M255.845 647.626C250.823 647.626 246.639 643.422 246.639 638.378C246.639 633.334 250.823 629.131 255.845 629.131C260.867 629.131 265.051 633.334 265.051 638.378C265.33 643.422 261.146 647.626 255.845 647.626Z" fill="#9ED2C6"/>
<path d="M365.204 647.626C360.182 647.626 355.997 643.422 355.997 638.378C355.997 633.334 360.182 629.131 365.204 629.131C370.225 629.131 374.41 633.334 374.41 638.378C374.689 643.422 370.504 647.626 365.204 647.626Z" fill="#9ED2C6"/>
</g>
<defs>
<linearGradient id="paint0_linear_0_1" x1="619.475" y1="633.425" x2="652.369" y2="655.985" gradientUnits="userSpaceOnUse">
<stop stop-color="#FEFEFE"/>
<stop offset="1" stop-color="#F4ECFE"/>
</linearGradient>
<linearGradient id="paint1_linear_0_1" x1="658.004" y1="613.125" x2="664.675" y2="617.7" gradientUnits="userSpaceOnUse">
<stop stop-color="#FEFEFE"/>
<stop offset="1" stop-color="#F4ECFE"/>
</linearGradient>
<linearGradient id="paint2_linear_0_1" x1="625.23" y1="660.933" x2="644.639" y2="695.867" gradientUnits="userSpaceOnUse">
<stop stop-color="#FEFEFE"/>
<stop offset="1" stop-color="#EFE2FE"/>
</linearGradient>
<linearGradient id="paint3_linear_0_1" x1="668.725" y1="660.025" x2="672.662" y2="667.111" gradientUnits="userSpaceOnUse">
<stop stop-color="#FEFEFE"/>
<stop offset="1" stop-color="#EFE2FE"/>
</linearGradient>
<linearGradient id="paint4_linear_0_1" x1="154.894" y1="634.248" x2="122" y2="656.808" gradientUnits="userSpaceOnUse">
<stop stop-color="#FEFEFE"/>
<stop offset="1" stop-color="#F4ECFE"/>
</linearGradient>
<linearGradient id="paint5_linear_0_1" x1="116.366" y1="613.948" x2="109.693" y2="618.524" gradientUnits="userSpaceOnUse">
<stop stop-color="#FEFEFE"/>
<stop offset="1" stop-color="#F4ECFE"/>
</linearGradient>
<linearGradient id="paint6_linear_0_1" x1="149.925" y1="661.202" x2="130.516" y2="696.135" gradientUnits="userSpaceOnUse">
<stop stop-color="#FEFEFE"/>
<stop offset="1" stop-color="#EFE2FE"/>
</linearGradient>
<linearGradient id="paint7_linear_0_1" x1="106.43" y1="660.294" x2="102.493" y2="667.379" gradientUnits="userSpaceOnUse">
<stop stop-color="#FEFEFE"/>
<stop offset="1" stop-color="#EFE2FE"/>
</linearGradient>
<linearGradient id="paint8_linear_0_1" x1="284.094" y1="305.54" x2="538.997" y2="767.47" gradientUnits="userSpaceOnUse">
<stop stop-color="#FAFCFF"/>
<stop offset="1" stop-color="#DFE6ED"/>
</linearGradient>
<linearGradient id="paint9_linear_0_1" x1="285.078" y1="306.31" x2="539.981" y2="768.239" gradientUnits="userSpaceOnUse">
<stop stop-color="#FEFEFE"/>
<stop offset="1" stop-color="#EFE2FE"/>
</linearGradient>
<linearGradient id="paint10_linear_0_1" x1="380.738" y1="617.379" x2="380.738" y2="198.193" gradientUnits="userSpaceOnUse">
<stop stop-color="#FEFEFE"/>
<stop offset="1" stop-color="#EFE2FE"/>
</linearGradient>
<linearGradient id="paint11_linear_0_1" x1="346.771" y1="584.904" x2="368.091" y2="584.904" gradientUnits="userSpaceOnUse">
<stop stop-color="#FEFEFE"/>
<stop offset="1" stop-color="#EFE2FE"/>
</linearGradient>
<linearGradient id="paint12_linear_0_1" x1="370.473" y1="585.153" x2="391.544" y2="585.153" gradientUnits="userSpaceOnUse">
<stop stop-color="#FEFEFE"/>
<stop offset="1" stop-color="#EFE2FE"/>
</linearGradient>
<linearGradient id="paint13_linear_0_1" x1="391.974" y1="584.904" x2="415.58" y2="584.904" gradientUnits="userSpaceOnUse">
<stop stop-color="#FEFEFE"/>
<stop offset="1" stop-color="#EFE2FE"/>
</linearGradient>
<linearGradient id="paint14_linear_0_1" x1="376.424" y1="660.748" x2="406.071" y2="697.83" gradientUnits="userSpaceOnUse">
<stop stop-color="#FEFEFE"/>
<stop offset="1" stop-color="#EFE2FE"/>
</linearGradient>
<linearGradient id="paint15_linear_0_1" x1="374.475" y1="658.07" x2="404.122" y2="695.152" gradientUnits="userSpaceOnUse">
<stop stop-color="#FEFEFE"/>
<stop offset="1" stop-color="#EFE2FE"/>
</linearGradient>
<linearGradient id="paint16_linear_0_1" x1="374.878" y1="658.528" x2="404.524" y2="695.61" gradientUnits="userSpaceOnUse">
<stop stop-color="#FEFEFE"/>
<stop offset="1" stop-color="#EFE2FE"/>
</linearGradient>
<linearGradient id="paint17_linear_0_1" x1="364.926" y1="422.143" x2="364.926" y2="504.426" gradientUnits="userSpaceOnUse">
<stop stop-color="#FEFEFE"/>
<stop offset="1" stop-color="#EFE2FE"/>
</linearGradient>
<linearGradient id="paint18_linear_0_1" x1="388.818" y1="457.177" x2="388.818" y2="500.049" gradientUnits="userSpaceOnUse">
<stop stop-color="#FEFEFE"/>
<stop offset="1" stop-color="#EFE2FE"/>
</linearGradient>
<linearGradient id="paint19_linear_0_1" x1="340.678" y1="439.676" x2="349.487" y2="439.676" gradientUnits="userSpaceOnUse">
<stop stop-color="#FEFEFE"/>
<stop offset="1" stop-color="#EFE2FE"/>
</linearGradient>
<linearGradient id="paint20_linear_0_1" x1="340.998" y1="439.676" x2="349.167" y2="439.676" gradientUnits="userSpaceOnUse">
<stop stop-color="#FEFEFE"/>
<stop offset="1" stop-color="#EFE2FE"/>
</linearGradient>
<linearGradient id="paint21_linear_0_1" x1="376.349" y1="439.676" x2="385.159" y2="439.676" gradientUnits="userSpaceOnUse">
<stop stop-color="#FEFEFE"/>
<stop offset="1" stop-color="#EFE2FE"/>
</linearGradient>
<linearGradient id="paint22_linear_0_1" x1="376.67" y1="439.676" x2="384.838" y2="439.676" gradientUnits="userSpaceOnUse">
<stop stop-color="#FEFEFE"/>
<stop offset="1" stop-color="#EFE2FE"/>
</linearGradient>
<linearGradient id="paint23_linear_0_1" x1="406.391" y1="433.38" x2="406.391" y2="515.662" gradientUnits="userSpaceOnUse">
<stop stop-color="#FEFEFE"/>
<stop offset="1" stop-color="#EFE2FE"/>
</linearGradient>
<linearGradient id="paint24_linear_0_1" x1="401.599" y1="433.38" x2="401.599" y2="515.662" gradientUnits="userSpaceOnUse">
<stop stop-color="#FEFEFE"/>
<stop offset="1" stop-color="#EFE2FE"/>
</linearGradient>
<linearGradient id="paint25_linear_0_1" x1="406.391" y1="433.38" x2="406.391" y2="515.662" gradientUnits="userSpaceOnUse">
<stop stop-color="#FEFEFE"/>
<stop offset="1" stop-color="#EFE2FE"/>
</linearGradient>
<linearGradient id="paint26_linear_0_1" x1="430.282" y1="468.414" x2="430.282" y2="511.286" gradientUnits="userSpaceOnUse">
<stop stop-color="#FEFEFE"/>
<stop offset="1" stop-color="#EFE2FE"/>
</linearGradient>
<linearGradient id="paint27_linear_0_1" x1="382.142" y1="450.912" x2="390.952" y2="450.912" gradientUnits="userSpaceOnUse">
<stop stop-color="#FEFEFE"/>
<stop offset="1" stop-color="#EFE2FE"/>
</linearGradient>
<linearGradient id="paint28_linear_0_1" x1="382.463" y1="450.913" x2="390.631" y2="450.913" gradientUnits="userSpaceOnUse">
<stop stop-color="#FEFEFE"/>
<stop offset="1" stop-color="#EFE2FE"/>
</linearGradient>
<linearGradient id="paint29_linear_0_1" x1="417.814" y1="450.912" x2="426.623" y2="450.912" gradientUnits="userSpaceOnUse">
<stop stop-color="#FEFEFE"/>
<stop offset="1" stop-color="#EFE2FE"/>
</linearGradient>
<linearGradient id="paint30_linear_0_1" x1="418.135" y1="450.913" x2="426.303" y2="450.913" gradientUnits="userSpaceOnUse">
<stop stop-color="#FEFEFE"/>
<stop offset="1" stop-color="#EFE2FE"/>
</linearGradient>
<linearGradient id="paint31_linear_0_1" x1="505.545" y1="475.146" x2="500.45" y2="525.101" gradientUnits="userSpaceOnUse">
<stop stop-color="#FEFEFE"/>
<stop offset="1" stop-color="#EFE2FE"/>
</linearGradient>
<linearGradient id="paint32_linear_0_1" x1="150.499" y1="592.651" x2="194.974" y2="616.875" gradientUnits="userSpaceOnUse">
<stop stop-color="#FEFEFE"/>
<stop offset="1" stop-color="#EFE2FE"/>
</linearGradient>
<linearGradient id="paint33_linear_0_1" x1="263.321" y1="667.569" x2="357.904" y2="667.569" gradientUnits="userSpaceOnUse">
<stop stop-color="#FEFEFE"/>
<stop offset="1" stop-color="#EFE2FE"/>
</linearGradient>
<linearGradient id="paint34_linear_0_1" x1="257.799" y1="638.247" x2="363.426" y2="638.247" gradientUnits="userSpaceOnUse">
<stop stop-color="#FEFEFE"/>
<stop offset="1" stop-color="#EFE2FE"/>
</linearGradient>
<linearGradient id="paint35_linear_0_1" x1="252.591" y1="619.559" x2="301.043" y2="619.559" gradientUnits="userSpaceOnUse">
<stop stop-color="#FEFEFE"/>
<stop offset="1" stop-color="#EFE2FE"/>
</linearGradient>
<linearGradient id="paint36_linear_0_1" x1="320.182" y1="619.559" x2="368.634" y2="619.559" gradientUnits="userSpaceOnUse">
<stop stop-color="#FEFEFE"/>
<stop offset="1" stop-color="#EFE2FE"/>
</linearGradient>
<linearGradient id="paint37_linear_0_1" x1="257.802" y1="641.697" x2="363.423" y2="641.697" gradientUnits="userSpaceOnUse">
<stop stop-color="#FEFEFE"/>
<stop offset="1" stop-color="#EFE2FE"/>
</linearGradient>
<clipPath id="clip0_0_1">
<rect width="621" height="503" fill="white" transform="translate(72 213)"/>
</clipPath>
</defs>
</svg>
