<svg width="275" height="62" viewBox="0 0 275 62" fill="none" xmlns="http://www.w3.org/2000/svg">
<rect x="0.797302" y="0.363892" width="273.784" height="61.2929" rx="30.6465" fill="#222222"/>
<path fill-rule="evenodd" clip-rule="evenodd" d="M109.28 17.7459H105.872V18.7572H108.289C108.17 20.1754 106.99 20.7803 105.876 20.7803C104.451 20.7803 103.208 19.6592 103.208 18.0877C103.208 16.557 104.393 15.3782 105.879 15.3782C107.026 15.3782 107.702 16.109 107.702 16.109L108.41 15.3757C108.41 15.3757 107.501 14.3639 105.843 14.3639C103.732 14.3639 102.099 16.1454 102.099 18.0696C102.099 19.9553 103.635 21.7937 105.897 21.7937C107.886 21.7937 109.342 20.4314 109.342 18.4165C109.342 17.9914 109.28 17.7457 109.28 17.7457V17.7459ZM109.922 34.0455H117.411C117.416 34.0668 117.546 34.6037 117.546 35.5188C117.546 39.9462 114.347 42.9404 109.977 42.9404C105.007 42.9404 101.632 38.9003 101.632 34.757C101.632 30.5286 105.22 26.6138 109.858 26.614C113.501 26.614 115.498 28.8373 115.498 28.8373L113.942 30.4486C113.942 30.4486 112.458 28.8424 109.938 28.8424C106.673 28.8424 104.068 31.4329 104.068 34.7966C104.068 38.2493 106.8 40.713 109.931 40.713C112.378 40.713 114.971 39.3839 115.234 36.2677H109.922V34.0455ZM118.502 37.6403C118.502 34.8382 120.704 32.4359 123.778 32.4359C126.303 32.4359 129.043 34.2258 129.043 37.7013C129.043 40.7336 126.688 42.9306 123.813 42.9306C120.638 42.9306 118.502 40.4836 118.502 37.6403ZM135.374 32.4359C132.301 32.4359 130.099 34.8382 130.099 37.6403C130.099 40.4836 132.235 42.9306 135.41 42.9306C138.284 42.9306 140.639 40.7336 140.639 37.7013C140.639 34.2258 137.9 32.4359 135.374 32.4359ZM126.751 37.6876C126.751 35.719 125.319 34.4971 123.808 34.4971V34.4973C122.11 34.4973 120.805 35.8547 120.805 37.6723C120.805 39.5299 122.126 40.8711 123.801 40.8711C125.325 40.8711 126.751 39.6144 126.751 37.6876ZM135.405 34.4971C136.916 34.4971 138.348 35.719 138.348 37.6876C138.348 39.6144 136.922 40.8711 135.398 40.8711C133.723 40.8711 132.402 39.5299 132.402 37.6723C132.402 35.8547 133.707 34.4973 135.405 34.4973V34.4971ZM141.696 37.6846C141.696 34.9119 143.913 32.4416 146.734 32.4416V32.4418C147.962 32.4418 148.887 32.9169 149.563 33.6459V32.7571H151.763V42.1861C151.763 45.8908 149.626 47.6568 146.821 47.6568C144.258 47.6568 142.817 46.0804 142.102 44.5668L144.119 43.7237C144.398 44.4 145.202 45.5923 146.805 45.5923C148.464 45.5923 149.563 44.5076 149.563 42.6973V41.6625C148.976 42.3439 148.181 42.9377 146.685 42.9377C144.267 42.9377 141.696 40.8432 141.696 37.6846ZM146.938 34.4985C148.321 34.4985 149.741 35.6793 149.741 37.6958C149.741 39.7455 148.324 40.875 146.907 40.875C145.404 40.875 144.005 39.6541 144.005 37.7153C144.005 35.7008 145.458 34.4985 146.938 34.4985ZM157.114 37.6692C157.114 34.5456 159.348 32.4287 162.008 32.4287L162.008 32.4291C164.107 32.4291 165.692 33.8283 166.372 35.5038L166.737 36.3595L159.701 39.2789C160.122 40.0614 160.8 40.8692 162.275 40.8694C163.588 40.8694 164.375 40.1554 164.846 39.4247L166.66 40.6317C165.846 41.72 164.484 42.9345 162.264 42.9345C159.604 42.9345 157.114 40.9744 157.114 37.6692ZM162.1 34.4469C163.059 34.4469 163.749 34.9564 164.042 35.5677L159.343 37.5316C159.14 36.0111 160.581 34.4469 162.1 34.4469H162.1ZM155.839 42.6231H153.528V27.1564H155.839V42.6231ZM184.514 42.6231H186.826V27.1564H184.514V42.6231ZM174.569 42.6231H172.258V37.0107V27.1564H174.569H177.849C180.559 27.1564 182.776 29.3736 182.776 32.0836C182.776 34.7935 180.559 37.0107 177.849 37.0107H174.569V42.6231ZM174.569 34.6992V29.4672H177.849C179.283 29.4672 180.465 30.6488 180.465 32.0833C180.465 33.5175 179.283 34.6992 177.849 34.6992H174.569ZM203.89 47.6567L210.582 32.4292H208.057L205.029 39.3208L202 32.4292H199.476L203.766 42.193L201.365 47.6567H203.89ZM196.284 42.6233H198.596V37.0606C198.957 31.3234 191.684 29.974 188.931 34.1099L190.791 35.3579C192.137 33.0051 195.977 33.5465 196.229 36.0679C195.075 35.7622 193.828 35.5406 192.689 35.6558C190.911 35.8357 189.389 36.9649 189.147 38.8144C189.016 39.8138 189.239 41.0457 189.937 41.7965C191.024 42.9663 192.81 43.1239 194.276 42.7242C195.102 42.4991 195.752 42.0086 196.284 41.3749V42.6233ZM193.727 40.7077C194.992 40.3633 195.989 39.438 196.284 38.1519C195.638 37.9424 195.043 37.7734 194.361 37.6911C190.389 37.0941 191.054 41.4362 193.727 40.7077ZM124.262 21.6498H123.21V14.6111H124.262V21.6498ZM117.32 21.6498H118.372V15.6628H120.098V14.6111H115.593V15.6628H117.32V21.6498ZM114.484 21.6498H110.451V14.6111H114.484V15.6628H111.503V17.6046H114.125V18.6563H111.503V20.5979H114.484V21.6498ZM127.896 21.6498V15.6628H129.622V14.6111H125.118V15.6628H126.844V21.6498H127.896ZM132.329 18.0696C132.329 16.1453 133.962 14.3639 136.073 14.3639C138.183 14.3639 139.816 16.1453 139.816 18.0696C139.816 19.9401 138.305 21.7642 136.073 21.7931C133.841 21.7642 132.329 19.9401 132.329 18.0696ZM136.072 20.7799C134.661 20.7626 133.437 19.6471 133.437 18.0879C133.437 16.5697 134.603 15.3976 136.072 15.3786C137.541 15.3976 138.707 16.5697 138.707 18.0879C138.707 19.6471 137.483 20.7626 136.072 20.7799ZM141.919 21.6498H140.867V14.6111H141.919L145.295 19.7355V14.6111H146.347V21.6498H145.297L141.919 16.5227V21.6498ZM65.3807 23.1432L77.2644 35.009L65.4378 46.9789C65.0927 46.7596 64.9076 46.2847 64.9045 45.6713L64.7973 24.4266C64.794 23.7548 65.0384 23.345 65.3807 23.1432ZM66.7321 23.1591L81.1827 31.0429L77.7555 34.5113L66.2279 23.0006C66.4025 23.0235 66.5778 23.0748 66.7321 23.1591ZM81.8257 38.5752L78.2509 35.0057L81.8221 31.3917L86.7399 34.0744C87.9514 34.735 87.3317 35.5614 86.7399 35.8853L81.8257 38.5752ZM66.7325 46.8358C66.6234 46.8968 66.5182 46.9446 66.4174 46.9825L77.7594 35.5035L81.1861 38.9251L66.7325 46.8358Z" fill="#FEFEFE"/>
</svg>
