<svg width="281" height="63" viewBox="0 0 281 63" fill="none" xmlns="http://www.w3.org/2000/svg">
<rect y="0.363892" width="280.797" height="62.2721" rx="31.1361" fill="#222222"/>
<path fill-rule="evenodd" clip-rule="evenodd" d="M81.1902 19.3363C82.2531 18.0072 82.9803 16.1989 82.7784 14.3639C81.2401 14.432 79.3163 15.4279 78.2085 16.7279C77.2283 17.8734 76.3528 19.751 76.579 21.5167C78.307 21.6456 80.0812 20.6448 81.1902 19.3363ZM85.0816 30.8625C85.0466 26.9725 88.2424 25.065 88.4353 24.9499L88.4391 24.9476C86.6017 22.2687 83.7537 21.9026 82.7529 21.8734C81.2895 21.7194 79.8529 22.2896 78.6791 22.7555C77.9343 23.0511 77.2952 23.3047 76.8222 23.3047C76.2836 23.3047 75.6261 23.0405 74.8893 22.7445L74.8893 22.7445C73.9258 22.3573 72.8267 21.9157 71.6807 21.9391C69.0783 21.9792 66.6438 23.4859 65.3086 25.8256C62.553 30.5962 64.6081 37.6067 67.2482 41.4628C68.5688 43.3526 70.112 45.46 72.1319 45.3858C73.0485 45.3486 73.6988 45.0748 74.3707 44.7919C75.1471 44.465 75.9523 44.126 77.2308 44.126C78.4367 44.126 79.2077 44.4542 79.9475 44.7691C80.6572 45.0711 81.3381 45.361 82.3467 45.3372C84.4675 45.3055 85.8027 43.4413 87.0771 41.5346C88.6033 39.3724 89.2162 37.2383 89.2405 37.1288C89.1919 37.113 85.1229 35.5601 85.0816 30.8625ZM119.064 15.4112H116.209V23.9045H119.064C121.589 23.9045 123.072 22.333 123.072 19.6549C123.072 16.9827 121.583 15.4112 119.064 15.4112ZM117.269 16.365V22.9513H118.994C120.918 22.9513 121.99 21.7742 121.99 19.667C121.99 17.5422 120.924 16.365 118.994 16.365H117.269ZM124.328 20.8441C124.328 22.7923 125.47 24.0107 127.165 24.0107C128.854 24.0107 129.996 22.7923 129.996 20.8441C129.996 18.89 128.854 17.6775 127.165 17.6775C125.47 17.6775 124.328 18.89 124.328 20.8441ZM127.165 23.1099C128.248 23.1099 128.954 22.2859 128.954 20.8439C128.954 19.4018 128.248 18.5778 127.165 18.5778C126.082 18.5778 125.369 19.4018 125.369 20.8439C125.369 22.2859 126.082 23.1099 127.165 23.1099ZM137.508 23.905L139.215 17.7836H138.202L136.978 22.7631H136.954L135.565 17.7836H134.576L133.193 22.7631H133.17L131.945 17.7836H130.927L132.64 23.905H133.682L135.059 19.1668H135.083L136.466 23.905H137.508ZM140.453 17.7834H141.418V18.7605H141.441C141.783 18.1013 142.436 17.6775 143.384 17.6775C144.726 17.6775 145.503 18.5427 145.503 19.9318V23.9048H144.479V20.1142C144.479 19.1254 144.014 18.5839 143.072 18.5839C142.107 18.5839 141.477 19.2667 141.477 20.3026V23.9048H140.453V17.7834ZM147.258 15.4112V23.9045H148.282V15.4112H147.258ZM152.604 24.0107C150.909 24.0107 149.767 22.7923 149.767 20.8441C149.767 18.89 150.909 17.6775 152.604 17.6775C154.293 17.6775 155.435 18.89 155.435 20.8441C155.435 22.7923 154.293 24.0107 152.604 24.0107ZM154.393 20.8439C154.393 22.2859 153.687 23.1099 152.604 23.1099C151.521 23.1099 150.809 22.2859 150.809 20.8439C150.809 19.4018 151.521 18.5778 152.604 18.5778C153.687 18.5778 154.393 19.4018 154.393 20.8439ZM158.656 24.0107C157.438 24.0107 156.62 23.275 156.62 22.1743C156.62 21.1266 157.426 20.4674 158.839 20.385L160.593 20.2849V19.7729C160.593 19.0253 160.098 18.578 159.251 18.578C158.462 18.578 157.968 18.9488 157.838 19.5492H156.849C156.92 18.4897 157.827 17.6775 159.274 17.6775C160.711 17.6775 161.617 18.4544 161.617 19.6728V23.9048H160.646V22.8512H160.622C160.257 23.5516 159.48 24.0107 158.656 24.0107ZM160.593 21.5797C160.593 22.4625 159.852 23.1394 158.886 23.1394C158.151 23.1394 157.662 22.7568 157.662 22.1741C157.662 21.5973 158.133 21.2324 158.957 21.1794L160.593 21.0793V21.5797ZM165.638 24.0104C164.079 24.0104 163.019 22.7626 163.019 20.8438C163.019 18.925 164.073 17.6772 165.615 17.6772C166.492 17.6772 167.198 18.1069 167.563 18.7779H167.587V15.4112H168.611V23.9045H167.634V22.8686H167.616C167.222 23.5749 166.521 24.0104 165.638 24.0104ZM164.067 20.8439C164.067 19.4607 164.75 18.5778 165.833 18.5778C166.887 18.5778 167.593 19.4783 167.593 20.8439C167.593 22.2153 166.887 23.1099 165.833 23.1099C164.75 23.1099 164.067 22.2329 164.067 20.8439ZM175.807 24.0107C174.112 24.0107 172.97 22.7923 172.97 20.8441C172.97 18.89 174.112 17.6775 175.807 17.6775C177.496 17.6775 178.638 18.89 178.638 20.8441C178.638 22.7923 177.496 24.0107 175.807 24.0107ZM177.596 20.8439C177.596 22.2859 176.889 23.1099 175.806 23.1099C174.723 23.1099 174.011 22.2859 174.011 20.8439C174.011 19.4018 174.723 18.5778 175.806 18.5778C176.889 18.5778 177.596 19.4018 177.596 20.8439ZM180.07 17.7834H181.035V18.7605H181.059C181.4 18.1013 182.054 17.6775 183.001 17.6775C184.343 17.6775 185.12 18.5427 185.12 19.9318V23.9048H184.096V20.1142C184.096 19.1254 183.631 18.5839 182.689 18.5839C181.724 18.5839 181.094 19.2667 181.094 20.3026V23.9048H180.07V17.7834ZM191.05 16.3062H190.026V17.7836H189.113V18.6253H190.026V22.3157C190.026 23.4929 190.461 23.952 191.585 23.952C191.827 23.952 192.109 23.9343 192.233 23.9049V23.0456C192.162 23.0573 191.927 23.075 191.809 23.075C191.285 23.075 191.05 22.8219 191.05 22.2627V18.6253H192.239V17.7836H191.05V16.3062ZM193.783 23.9045V15.4112H194.807V18.7602H194.83C195.172 18.0775 195.843 17.6772 196.773 17.6772C198.115 17.6772 198.927 18.5837 198.927 19.9492V23.9045H197.903V20.1375C197.903 19.1664 197.414 18.5837 196.455 18.5837C195.437 18.5837 194.807 19.2782 194.807 20.3377V23.9045H193.783ZM205.697 22.1508H204.691C204.52 22.7276 203.949 23.1219 203.172 23.1219C202.072 23.1219 201.383 22.3509 201.383 21.1796V21.1207H205.774V20.7323C205.774 18.8782 204.756 17.6775 203.102 17.6775C201.412 17.6775 200.329 18.9665 200.329 20.8676C200.329 22.7923 201.395 24.0107 203.149 24.0107C204.485 24.0107 205.521 23.222 205.697 22.1508ZM203.084 18.5663C202.125 18.5663 201.454 19.3021 201.389 20.3203H204.714C204.691 19.2962 204.049 18.5663 203.084 18.5663ZM124.644 40.3436L126.128 44.7259H128.791L122.936 28.5114H120.217L114.363 44.7259H116.981L118.464 40.3436H124.644ZM121.521 31.208L119.105 38.3208H124.004L121.588 31.208H121.521ZM141.969 38.8151C141.969 35.0733 139.991 32.7136 136.991 32.7136C135.283 32.7136 133.924 33.5788 133.227 34.9385H133.182V32.9046H130.833V48.636H133.261V42.7817H133.317C133.991 44.0964 135.339 44.9279 137.036 44.9279C140.003 44.9279 141.969 42.557 141.969 38.8151ZM136.35 42.8719C138.272 42.8719 139.474 41.2988 139.474 38.8155C139.474 36.3434 138.272 34.759 136.35 34.759C134.496 34.759 133.249 36.3771 133.249 38.8155C133.249 41.2763 134.485 42.8719 136.35 42.8719ZM155.517 38.8151C155.517 35.0733 153.54 32.7136 150.539 32.7136C148.831 32.7136 147.472 33.5788 146.775 34.9385H146.73V32.9046H144.382V48.636H146.809V42.7817H146.865C147.539 44.0964 148.888 44.9279 150.584 44.9279C153.551 44.9279 155.517 42.557 155.517 38.8151ZM149.899 42.8719C151.821 42.8719 153.023 41.2988 153.023 38.8155C153.023 36.3434 151.821 34.759 149.899 34.759C148.045 34.759 146.798 36.3771 146.798 38.8155C146.798 41.2763 148.034 42.8719 149.899 42.8719ZM165.198 40.2088H162.715C162.872 43.1416 165.299 44.9956 168.895 44.9956C172.738 44.9956 175.154 43.0966 175.154 40.0627C175.154 37.6918 173.772 36.3546 170.446 35.568L168.659 35.1298C166.569 34.6129 165.715 33.9387 165.715 32.7926C165.715 31.3543 167.052 30.3654 169.007 30.3654C170.963 30.3654 172.3 31.343 172.446 32.9611H174.896C174.817 30.1632 172.468 28.2417 169.041 28.2417C165.58 28.2417 163.142 30.1632 163.142 32.9611C163.142 35.2197 164.524 36.613 167.502 37.3322L169.603 37.8378C171.704 38.3547 172.592 39.1076 172.592 40.3661C172.592 41.8156 171.12 42.8719 169.075 42.8719C166.94 42.8719 165.378 41.8156 165.198 40.2088ZM178.376 30.1069H180.815V32.9048H183.062V34.8263H180.815V41.3436C180.815 42.3661 181.264 42.8268 182.253 42.8268C182.5 42.8268 182.893 42.8043 183.051 42.7706V44.6921C182.781 44.7595 182.242 44.8045 181.702 44.8045C179.309 44.8045 178.376 43.8943 178.376 41.6132V34.8263H176.657V32.9048H178.376V30.1069ZM184.79 38.8151C184.79 42.6244 187.015 44.9504 190.397 44.9504C193.779 44.9504 196.004 42.6244 196.004 38.8151C196.004 35.0171 193.768 32.6911 190.397 32.6911C187.026 32.6911 184.79 35.0171 184.79 38.8151ZM190.397 42.9506C192.307 42.9506 193.532 41.4449 193.532 38.8155C193.532 36.1973 192.296 34.6916 190.397 34.6916C188.498 34.6916 187.262 36.1973 187.262 38.8155C187.262 41.4449 188.498 42.9506 190.397 42.9506ZM200.743 32.9046H198.428V44.7256H200.855V37.6465C200.855 35.9723 201.822 34.9272 203.384 34.9272C203.855 34.9272 204.282 34.9834 204.474 35.0621V32.8035C204.294 32.7698 203.99 32.7136 203.642 32.7136C202.249 32.7136 201.192 33.5339 200.799 34.916H200.743V32.9046ZM214.359 41.2535H216.662C216.325 43.411 214.28 44.9504 211.572 44.9504C208.1 44.9504 205.999 42.6019 205.999 38.8713C205.999 35.1632 208.134 32.6911 211.471 32.6911C214.752 32.6911 216.797 35.0059 216.797 38.5904V39.4219H208.448V39.568C208.448 41.6243 209.684 42.984 211.628 42.984C213.011 42.984 214.033 42.2873 214.359 41.2535ZM208.46 37.7254C208.584 35.9387 209.775 34.6465 211.472 34.6465C213.168 34.6465 214.314 35.9163 214.371 37.7254H208.46Z" fill="#FEFEFE"/>
</svg>
