<svg width="20" height="20" viewBox="0 0 20 20" fill="none" xmlns="http://www.w3.org/2000/svg">
<path d="M8.07031 8.92165C8.07031 8.92165 9.96264 8.78298 9.96264 6.59269C9.96264 4.40223 8.41448 3.33325 6.4534 3.33325H0.000244141V15.5738H6.4534C6.4534 15.5738 10.3928 15.6966 10.3928 11.961C10.3928 11.961 10.5646 8.92165 8.07031 8.92165ZM5.9889 5.50887H6.4534C6.4534 5.50887 7.33057 5.50887 7.33057 6.78245C7.33057 8.05587 6.8147 8.2405 6.22956 8.2405H2.84359V5.50887H5.9889ZM6.27104 13.3983H2.84359V10.1271H6.4534C6.4534 10.1271 7.76078 10.1102 7.76078 11.8082C7.76078 13.2399 6.78429 13.3875 6.27104 13.3983ZM15.6467 6.44761C10.8776 6.44761 10.8818 11.1508 10.8818 11.1508C10.8818 11.1508 10.5546 15.8299 15.6467 15.8299C15.6467 15.8299 19.8901 16.0691 19.8901 12.5749H17.7078C17.7078 12.5749 17.7805 13.8908 15.7195 13.8908C15.7195 13.8908 13.5368 14.0352 13.5368 11.7612H19.9628C19.9628 11.7612 20.666 6.44761 15.6467 6.44761ZM13.5129 10.1271C13.5129 10.1271 13.7793 8.24046 15.6952 8.24046C17.6106 8.24046 17.5866 10.1271 17.5866 10.1271H13.5129ZM18.095 5.56171H12.9786V4.05438H18.095V5.56171Z" fill="#54BAB9"/>
</svg>
