<svg width="38" height="40" viewBox="0 0 38 40" fill="none" xmlns="http://www.w3.org/2000/svg">
<path d="M28.5336 18.9071C28.5336 13.6571 24.25 9.37354 19 9.37354C13.75 9.37354 9.46643 13.6571 9.46643 18.9071C9.46643 19.6635 9.5501 20.4198 9.7601 21.1744C10.0128 22.3918 10.4738 23.1481 11.1038 24.1981C11.2301 24.4508 11.3974 24.7018 11.5664 24.9954C11.7764 25.3318 11.9438 25.6681 12.1538 25.9618C12.9938 27.3481 13.4974 28.1454 13.4974 29.7844V33.7318C13.4974 34.7391 14.2111 35.5381 15.1774 35.7054C15.5974 37.8481 16.8574 39.1918 19.0001 39.1918C21.1428 39.1918 22.4438 37.8481 22.8228 35.7054C23.7891 35.5381 24.5028 34.6981 24.5028 33.7318V29.7844C24.5028 28.1471 25.0064 27.3071 25.8464 25.9618C26.0138 25.6681 26.2238 25.3318 26.4338 24.9954C26.6011 24.7018 26.7701 24.4491 26.8964 24.1981C27.5264 23.1481 27.9891 22.3918 28.2401 21.1744C28.4501 20.4197 28.5338 19.6634 28.5338 18.9071H28.5336ZM22.8636 30.7935H15.22V29.8272C15.22 29.6172 15.22 29.4499 15.1774 29.2809H22.8638C22.8638 29.4482 22.8211 29.6172 22.8211 29.8272L22.8228 30.7935H22.8636ZM22.4862 34.1125H15.5134C15.3034 34.1125 15.1771 33.9452 15.1771 33.7762V32.4735H22.8207V33.7762C22.8633 33.9435 22.696 34.1125 22.486 34.1125H22.4862ZM18.9999 37.5562C18.5372 37.5562 17.3626 37.5562 16.8999 35.7925H21.1428C20.6801 37.5562 19.4628 37.5562 19.0001 37.5562H18.9999ZM26.6028 20.8397C26.3927 21.7634 26.0564 22.3934 25.4691 23.3597C25.3017 23.6124 25.1754 23.8634 25.0064 24.1571C24.7964 24.4934 24.6291 24.8297 24.4601 25.0807C23.9564 25.9207 23.4937 26.6771 23.2001 27.5581H14.8837C14.59 26.6754 14.17 25.9207 13.6237 25.0807C13.4563 24.7871 13.2463 24.4934 13.0773 24.1571C12.91 23.8634 12.741 23.5697 12.6147 23.3597C12.0273 22.3524 11.691 21.7634 11.481 20.7971C11.3136 20.1671 11.2283 19.5371 11.2283 18.9071C11.2283 14.5807 14.7557 11.0535 19.0819 11.0535C23.4083 11.0535 26.9355 14.5808 26.9355 18.9071C26.8535 19.5371 26.7698 20.1671 26.6024 20.8397H26.6028Z" fill="#2C3333"/>
<path d="M36.3036 18.0671H32.8172C32.3546 18.0671 31.9772 18.4445 31.9772 18.9071C31.9772 19.3698 32.3546 19.7471 32.8172 19.7471H36.3036C36.7663 19.7471 37.1436 19.3698 37.1436 18.9071C37.1436 18.4461 36.7662 18.0671 36.3036 18.0671Z" fill="#2C3333"/>
<path d="M28.7436 10.0035C28.9536 10.0035 29.1636 9.91986 29.3309 9.75088L31.8082 7.27355C32.1446 6.93722 32.1446 6.43355 31.8082 6.09722C31.4719 5.76089 30.9682 5.76089 30.6319 6.09722L28.1546 8.57455C27.8182 8.91087 27.8182 9.41455 28.1546 9.75088C28.3236 9.91986 28.5336 10.0035 28.7435 10.0035H28.7436Z" fill="#2C3333"/>
<path d="M19 5.93001C19.4627 5.93001 19.84 5.55266 19.84 5.09001V1.60367C19.84 1.141 19.4627 0.763672 19 0.763672C18.5373 0.763672 18.16 1.14102 18.16 1.60367V5.09001C18.16 5.55268 18.5373 5.93001 19 5.93001Z" fill="#2C3333"/>
<path d="M8.66717 9.75283C8.83451 9.92018 9.04451 10.0055 9.2545 10.0055C9.46448 10.0055 9.6745 9.92182 9.84182 9.75283C10.1782 9.41651 10.1782 8.91283 9.84182 8.5765L7.3645 6.09917C7.02817 5.76284 6.5245 5.76284 6.18816 6.09917C5.85183 6.4355 5.85183 6.93917 6.18816 7.27551L8.66717 9.75283Z" fill="#2C3333"/>
<path d="M5.22358 18.0671H1.73725C1.27458 18.0671 0.897247 18.4445 0.897247 18.9071C0.897247 19.3698 1.27459 19.7471 1.73725 19.7471H5.22358C5.68625 19.7471 6.06358 19.3698 6.06358 18.9071C6.06358 18.4461 5.68624 18.0671 5.22358 18.0671Z" fill="#2C3333"/>
<path d="M8.66717 28.0636L6.18984 30.541C5.85351 30.8773 5.85351 31.381 6.18984 31.7173C6.35718 31.8847 6.56718 31.97 6.77717 31.97C6.98715 31.97 7.19717 31.8863 7.36449 31.7173L9.84182 29.24C10.1782 28.9037 10.1782 28.4 9.84182 28.0636C9.50714 27.7273 8.96243 27.7273 8.66712 28.0636H8.66717Z" fill="#2C3333"/>
<path d="M29.3328 28.0636C28.9965 27.7273 28.4929 27.7273 28.1565 28.0636C27.8202 28.4 27.8202 28.9036 28.1565 29.24L30.6338 31.7173C30.8012 31.8847 31.0112 31.97 31.2212 31.97C31.4312 31.97 31.6412 31.8863 31.8085 31.7173C32.1448 31.381 32.1448 30.8773 31.8085 30.541L29.3328 28.0636Z" fill="#2C3333"/>
</svg>
