<svg width="10" height="15" viewBox="0 0 14 18" fill="none" xmlns="http://www.w3.org/2000/svg">
<path d="M6.3325 17.25C6.24554 17.2499 6.15925 17.2347 6.0775 17.205C5.75297 17.0862 5.55165 16.761 5.59 16.4175L6.1675 11.1H1.75C1.47234 11.1004 1.21717 10.9474 1.08676 10.7023C0.956337 10.4572 0.972014 10.16 1.1275 9.93L7.045 1.08C7.23756 0.795049 7.59926 0.677576 7.9225 0.795003C8.23262 0.910136 8.43069 1.21485 8.41 1.545L7.8325 6.9H12.25C12.5277 6.89959 12.7828 7.0526 12.9133 7.29772C13.0437 7.54285 13.028 7.83997 12.8725 8.07L6.955 16.92C6.8153 17.1267 6.58197 17.2504 6.3325 17.25Z" fill="#1A1A1A"/>
</svg>
