<svg width="48" height="48" viewBox="0 0 48 48" fill="none" xmlns="http://www.w3.org/2000/svg">
<g clip-path="url(#clip0_0_876)">
<path d="M7.62955 16.7244H40.3705" stroke="#395B64" stroke-width="2" stroke-linecap="round" stroke-linejoin="round"/>
<path d="M21.9373 12.168L21.9282 12.177L21.9373 12.1861L21.9464 12.177L21.9373 12.168" stroke="#395B64" stroke-width="2" stroke-linecap="round" stroke-linejoin="round"/>
<path d="M17.319 12.168L17.31 12.177L17.319 12.1861L17.3281 12.177L17.319 12.168" stroke="#395B64" stroke-width="2" stroke-linecap="round" stroke-linejoin="round"/>
<path d="M12.6844 12.1589L12.6753 12.168L12.6844 12.1771L12.6935 12.168L12.6844 12.1589" stroke="#395B64" stroke-width="2" stroke-linecap="round" stroke-linejoin="round"/>
<path d="M18.5432 40.3705H11.2674C10.3025 40.3705 9.37706 39.9876 8.69476 39.3053C8.01247 38.623 7.62955 37.6976 7.62955 36.7327V11.2675C7.62955 10.3026 8.01247 9.37715 8.69476 8.69486C9.37706 8.01256 10.3025 7.62964 11.2674 7.62964H36.7326C37.6975 7.62964 38.6229 8.01256 39.3052 8.69486C39.9875 9.37715 40.3705 10.3026 40.3705 11.2675V18.5433" stroke="#395B64" stroke-width="2" stroke-linecap="round" stroke-linejoin="round"/>
<path d="M25.8189 31.5471V40.3706" stroke="#395B64" stroke-width="2" stroke-linecap="round" stroke-linejoin="round"/>
<path d="M40.3705 40.3706V31.5471" stroke="#395B64" stroke-width="2" stroke-linecap="round" stroke-linejoin="round"/>
<path d="M33.0947 40.3705V36.7327" stroke="#395B64" stroke-width="2" stroke-linecap="round" stroke-linejoin="round"/>
<path d="M24.9458 40.3707H41.2435" stroke="#395B64" stroke-width="2" stroke-linecap="round" stroke-linejoin="round"/>
<path d="M26.7575 31.7168V31.7168C25.7993 31.7156 24.9102 31.2175 24.4087 30.4009C23.9073 29.5843 23.8652 28.5661 24.2975 27.7109L25.4957 25.3438C25.9137 24.5209 26.7577 24.0019 27.6807 24H38.5038C39.4284 23.9994 40.2749 24.5181 40.6943 25.342L41.8924 27.7091C42.3248 28.5643 42.2827 29.5825 41.7813 30.3991C41.2798 31.2156 40.3907 31.7137 39.4325 31.715C38.0733 31.7153 36.865 30.8497 36.4281 29.5627C36.399 29.4967 36.3336 29.4541 36.2615 29.4541C36.1893 29.4541 36.124 29.4967 36.0949 29.5627C35.6585 30.8494 34.4509 31.715 33.0923 31.715C31.7336 31.715 30.526 30.8494 30.0897 29.5627C30.0606 29.4967 29.9952 29.4541 29.9231 29.4541C29.8509 29.4541 29.7856 29.4967 29.7564 29.5627C29.319 30.8494 28.111 31.7148 26.7521 31.715" stroke="#395B64" stroke-width="2" stroke-linecap="round" stroke-linejoin="round"/>
</g>
<defs>
<clipPath id="clip0_0_876">
<rect width="43.6364" height="43.6364" fill="white" transform="translate(2.18182 2.18188)"/>
</clipPath>
</defs>
</svg>
