<svg width="24" height="24" viewBox="0 0 24 24" fill="none" xmlns="http://www.w3.org/2000/svg">
<rect opacity="0.01" x="24" y="24" width="24" height="24" transform="rotate(180 24 24)" fill="#54BAB9"/>
<path d="M15.15 8.40006C13.602 8.39475 12.1155 9.00526 11.0182 10.097C9.92078 11.1888 9.30263 12.6721 9.29999 14.2201V20.1001C9.29999 20.3388 9.39481 20.5677 9.56359 20.7365C9.73237 20.9052 9.96129 21.0001 10.2 21.0001H12.3C12.797 21.0001 13.2 20.5971 13.2 20.1001V14.2201C13.1996 13.6687 13.4338 13.1433 13.8441 12.775C14.2543 12.4067 14.8019 12.2304 15.35 12.2901C16.3559 12.4168 17.1079 13.2762 17.1 14.2901V20.1001C17.1 20.5971 17.5029 21.0001 18 21.0001H20.1C20.597 21.0001 21 20.5971 21 20.1001V14.2201C20.9973 12.6721 20.3792 11.1888 19.2818 10.097C18.1844 9.00526 16.6979 8.39475 15.15 8.40006Z" fill="#54BAB9"/>
<rect x="3" y="9.30005" width="4.5" height="11.7" rx="0.9" fill="#54BAB9"/>
<circle cx="5.25" cy="5.25" r="2.25" fill="#54BAB9"/>
</svg>
