<svg width="19" height="17" viewBox="0 0 19 17" fill="none" xmlns="http://www.w3.org/2000/svg">
<path d="M5.08 16C8.06741 16.1 10.9683 14.9876 13.1229 12.9159C15.2775 10.8441 16.5028 7.98907 16.52 5.00005C17.1977 4.16146 17.7008 3.19588 18 2.16005C18.0456 1.99287 17.9889 1.81449 17.855 1.70441C17.7212 1.59433 17.5352 1.57305 17.38 1.65005C16.6531 1.99998 15.7839 1.84707 15.22 1.27005C14.5108 0.493378 13.5172 0.0370087 12.466 0.00498011C11.4147 -0.0270484 10.3952 0.367994 9.64 1.10005C8.59897 2.10824 8.16253 3.58832 8.49 5.00005C5.14 5.20005 2.84 3.61005 1 1.43005C0.887052 1.30213 0.709152 1.25312 0.546628 1.30512C0.384103 1.35713 0.26771 1.50032 0.250003 1.67005C-0.467881 5.65221 1.36687 9.66074 4.85 11.72C3.70964 13.0279 2.10821 13.8447 0.380003 14C0.190182 14.0315 0.0413789 14.1802 0.00974645 14.37C-0.021886 14.5598 0.0706525 14.7487 0.240003 14.84C1.74352 15.5914 3.39923 15.9882 5.08 16Z" fill="#54BAB9"/>
</svg>
